<svg version="1.1" xmlns="http://www.w3.org/2000/svg" viewBox="0 0 978 650" width="1956" height="1300">
  <!-- svg-source:excalidraw -->
  
  <defs>
    <style class="style-fonts">
      @font-face {
        font-family: "Virgil";
        src: url("https://excalidraw.com/Virgil.woff2");
      }
      @font-face {
        font-family: "Cascadia";
        src: url("https://excalidraw.com/Cascadia.woff2");
      }
    </style>
    
  </defs>
  <rect x="0" y="0" width="978" height="650" fill="#ffffff"></rect><g stroke-opacity="0.2" fill-opacity="0.2" stroke-linecap="round" transform="translate(10 10) rotate(0 479 315)"><path d="M35.66 -0.38 L922.43 0.09 L947.39 7.41 L957.23 13 L960.8 31.85 L954.71 594.87 L956.95 620.24 L946.52 627.87 L925.06 626.68 L34.48 631.03 L15.56 625.07 L1.1 611.64 L3.04 600.13 L-2.92 31.84 L-1.19 21.9 L6.82 10.07 L14.34 3.22 L30.87 1.59" stroke="none" stroke-width="0" fill="#a5d8ff"></path><path d="M32 0 M32 0 C296.01 8.54, 559.66 6, 926 0 M32 0 C378.86 2.99, 725.96 3.56, 926 0 M926 0 C947.77 -0.03, 954.94 12.82, 958 32 M926 0 C944.24 -3.3, 954.75 7.89, 958 32 M958 32 C956.6 257.13, 956.69 482.08, 958 598 M958 32 C955.56 222.89, 955.26 413.57, 958 598 M958 598 C958.69 618.48, 947.32 627.86, 926 630 M958 598 C953.44 617.98, 948.74 628.33, 926 630 M926 630 C667.47 628.42, 410.74 627.06, 32 630 M926 630 C594.87 631.67, 264.07 631.01, 32 630 M32 630 C14.4 628.45, -3.55 621.25, 0 598 M32 630 C10.93 634.46, -1.34 619.36, 0 598 M0 598 C-0.69 436.39, -1.31 273.38, 0 32 M0 598 C-2.93 454.13, -2.27 309.08, 0 32 M0 32 C-2.34 12.32, 9.08 2.21, 32 0 M0 32 C-1.35 7.66, 11.43 1.64, 32 0" stroke="#2f9e44" stroke-width="2" fill="none"></path></g><g transform="translate(260.8000030517578 35.26818175168074) rotate(0 213.1999969482422 16.799999999999997)"><text x="213.1999969482422" y="0" font-family="Cascadia, Segoe UI Emoji" font-size="28px" fill="#1e1e1e" text-anchor="middle" style="white-space: pre;" direction="ltr" dominant-baseline="text-before-edge">Docker Network (Veth Pair)</text></g><g stroke-linecap="round" transform="translate(71 143) rotate(0 92 44.5)"><path d="M5.27 5.9 C5.27 5.9, 5.27 5.9, 5.27 5.9 M5.27 5.9 C5.27 5.9, 5.27 5.9, 5.27 5.9 M3.43 20.21 C5.79 14.67, 9.91 10.06, 16.55 5.11 M3.43 20.21 C8.64 15.39, 10.94 11.06, 16.55 5.11 M3.56 32.25 C13.4 19.14, 16.52 13.56, 27.84 4.32 M3.56 32.25 C10.35 26.49, 17.08 18.71, 27.84 4.32 M3.7 44.29 C14.08 32.24, 22.72 19.6, 38.47 4.29 M3.7 44.29 C11.64 34.66, 17.24 26.01, 38.47 4.29 M3.83 56.33 C21.06 38.85, 32.23 24.07, 49.1 4.26 M3.83 56.33 C13.71 44.17, 23.1 31.64, 49.1 4.26 M0.68 72.15 C21.41 50.55, 39.8 22.56, 59.07 4.98 M0.68 72.15 C23.35 47.32, 44.84 22.25, 59.07 4.98 M3.44 81.17 C20.67 61.27, 37.38 47.27, 69.7 4.94 M3.44 81.17 C18.99 59.95, 37.26 39.76, 69.7 4.94 M9.48 86.42 C29.06 61.19, 54.59 37.79, 80.33 4.91 M9.48 86.42 C31.85 59.14, 59.21 30.6, 80.33 4.91 M18.14 88.65 C32.81 69.57, 51.14 53.43, 90.96 4.87 M18.14 88.65 C44.04 56.44, 72.95 29.67, 90.96 4.87 M25.49 92.38 C52.11 58.76, 84.84 24.35, 101.59 4.84 M25.49 92.38 C51.55 61.57, 77.19 34.33, 101.59 4.84 M36.12 92.35 C64.58 58.8, 91.66 34.09, 112.22 4.8 M36.12 92.35 C60.89 64.42, 86.44 32.7, 112.22 4.8 M46.75 92.32 C64.05 68.07, 90.4 41.54, 122.85 4.77 M46.75 92.32 C68.79 64.83, 93.04 38.59, 122.85 4.77 M57.38 92.28 C79.49 61.3, 105.71 34.92, 133.48 4.73 M57.38 92.28 C81.45 60.47, 107.49 33.2, 133.48 4.73 M68.01 92.25 C86.99 72.59, 104.23 44.49, 144.11 4.7 M68.01 92.25 C87.11 68.02, 109.77 41.94, 144.11 4.7 M78.64 92.21 C98.03 75.74, 118.72 50.64, 154.74 4.67 M78.64 92.21 C103.86 61.38, 129.55 32.08, 154.74 4.67 M89.27 92.18 C114.7 56.9, 140.51 29.72, 166.03 3.88 M89.27 92.18 C113.75 59.98, 138.87 31.44, 166.03 3.88 M99.9 92.14 C120.47 67.03, 140.99 42.94, 176.66 3.84 M99.9 92.14 C119.45 68.58, 137.09 50.12, 176.66 3.84 M110.53 92.11 C128.49 67.18, 154.9 50.87, 182.04 9.84 M110.53 92.11 C132.05 65.17, 157.06 39.58, 182.04 9.84 M121.16 92.07 C150.13 60.25, 171.95 35.75, 185.46 18.11 M121.16 92.07 C144.81 66.06, 168.24 42.12, 185.46 18.11 M131.79 92.04 C147.64 75.76, 164.65 56.59, 185.59 30.15 M131.79 92.04 C147.9 72.16, 165.26 50.24, 185.59 30.15 M142.42 92 C153.18 75.15, 173.32 57.21, 185.07 42.95 M142.42 92 C153.76 78.87, 167.34 65.58, 185.07 42.95 M153.05 91.97 C163.76 80.02, 168.71 71.57, 185.2 54.99 M153.05 91.97 C159.64 82.78, 169.43 77.19, 185.2 54.99 M164.34 91.18 C167.92 80.51, 180.07 70.1, 184.68 67.79 M164.34 91.18 C171.62 82.42, 178 78.19, 184.68 67.79" stroke="#ffc9c9" stroke-width="1" fill="none"></path><path d="M22.25 0 M22.25 0 C72.39 1.29, 126.84 -2.67, 161.75 0 M22.25 0 C73.96 3.84, 127.23 3.29, 161.75 0 M161.75 0 C177.58 -1.86, 187.08 5.07, 184 22.25 M161.75 0 C172.1 -0.72, 184.47 11.26, 184 22.25 M184 22.25 C183.03 40.57, 180.33 55.09, 184 66.75 M184 22.25 C185.69 34.51, 183.34 46.9, 184 66.75 M184 66.75 C183.89 81.89, 175.33 90.28, 161.75 89 M184 66.75 C185.73 82.2, 179.92 91.64, 161.75 89 M161.75 89 C128.74 91.67, 91.5 87.48, 22.25 89 M161.75 89 C113.68 90.25, 65.32 90.01, 22.25 89 M22.25 89 C7.07 91.41, 0.11 80.02, 0 66.75 M22.25 89 C8.27 93.28, 1.45 79.34, 0 66.75 M0 66.75 C0.59 50.45, -2.4 38.62, 0 22.25 M0 66.75 C-1.49 48.67, -0.75 32.25, 0 22.25 M0 22.25 C3.63 5.58, 10.54 0.31, 22.25 0 M0 22.25 C3.68 5.94, 11.13 -4.49, 22.25 0" stroke="#1e1e1e" stroke-width="2" fill="none"></path></g><g transform="translate(80.86666870117188 175.5) rotate(0 82.13333129882812 12)"><text x="82.13333129882812" y="0" font-family="Cascadia, Segoe UI Emoji" font-size="20px" fill="#1e1e1e" text-anchor="middle" style="white-space: pre;" direction="ltr" dominant-baseline="text-before-edge">ContainerA(c1)</text></g><g stroke-linecap="round" transform="translate(51.1615625681344 522.7823799122223) rotate(0.2931972654488163 212.5 41.5)"><path d="M24.32 -3.56 L412.68 0.06 L416.62 4.56 L426.08 14.62 L421.04 69.88 L419.32 79.97 L414.13 79.59 L401.38 81.51 L12.78 81.46 L8.8 75.81 L4.88 69.68 L-2.51 20.13 L-2.68 7.95 L8.69 3.46 L9.19 4.35 L21.3 -0.92" stroke="none" stroke-width="0" fill="#38d9a9"></path><path d="M20.75 0 M20.75 0 C172 3.71, 321.6 1.61, 404.25 0 M404.25 0 C414.2 0.45, 428.74 10.91, 425 20.75 M425 20.75 C427.01 36.53, 427.3 46.49, 425 62.25 M425 62.25 C427.8 79.07, 416.76 79.24, 404.25 83 M404.25 83 C272.63 80.05, 136.59 77.01, 20.75 83 M20.75 83 C3.49 81.81, -0.41 72.41, 0 62.25 M0 62.25 C-0.14 49.56, -3.86 37.12, 0 20.75 M0 20.75 C2.89 4.2, 4.65 -3.5, 20.75 0" stroke="#1e1e1e" stroke-width="2.5" fill="none" stroke-dasharray="8 10"></path></g><g transform="translate(216.34489691872034 541.2823799122223) rotate(0.2931972654488163 47.31666564941406 23)"><text x="47.31666564941406" y="0" font-family="Helvetica, Segoe UI Emoji" font-size="20px" fill="#ffffff" text-anchor="middle" style="white-space: pre;" direction="ltr" dominant-baseline="text-before-edge">docker0</text><text x="47.31666564941406" y="23" font-family="Helvetica, Segoe UI Emoji" font-size="20px" fill="#ffffff" text-anchor="middle" style="white-space: pre;" direction="ltr" dominant-baseline="text-before-edge">172.17.0.1</text></g><g stroke-linecap="round" transform="translate(100 234) rotate(0 68 24.5)"><path d="M3.26 2.83 C3.26 2.83, 3.26 2.83, 3.26 2.83 M3.26 2.83 C3.26 2.83, 3.26 2.83, 3.26 2.83 M1.69 10.74 C6.05 10.24, 4.55 5.95, 10.22 0.93 M1.69 10.74 C4.36 9.26, 5.44 4.47, 10.22 0.93 M1.43 17.14 C9.09 10.65, 11.99 6.03, 14.55 2.05 M1.43 17.14 C8.12 11.45, 12.01 8.42, 14.55 2.05 M1.82 22.78 C10.28 16.95, 15.29 12.14, 19.53 2.41 M1.82 22.78 C4.8 16.86, 9.25 14.02, 19.53 2.41 M1.56 29.18 C9.31 20.03, 11.33 14.95, 25.18 2.01 M1.56 29.18 C6.22 20.84, 14.6 15, 25.18 2.01 M1.95 34.82 C14.33 22.28, 23.42 15.34, 30.16 2.37 M1.95 34.82 C10.55 26.61, 16.4 16.14, 30.16 2.37 M1.69 41.22 C12.36 26.94, 23.38 20.8, 35.81 1.98 M1.69 41.22 C8.17 31.45, 16.45 23.82, 35.81 1.98 M3.4 45.35 C12.35 34.94, 25.58 20.87, 40.79 2.34 M3.4 45.35 C13.17 33.88, 22.51 23.72, 40.79 2.34 M6.42 47.98 C20.93 35.63, 31 18.22, 46.44 1.94 M6.42 47.98 C21.13 31.57, 34.53 15.73, 46.44 1.94 M9.44 50.6 C20.94 38.53, 27.15 33.18, 51.42 2.3 M9.44 50.6 C23.26 36.31, 32.6 23.19, 51.42 2.3 M15.08 50.21 C25.83 32.17, 40.25 19.74, 56.41 2.66 M15.08 50.21 C25.92 38.23, 36.25 26.55, 56.41 2.66 M20.07 50.57 C30.54 29.59, 48.67 18.68, 62.05 2.27 M20.07 50.57 C30.98 36.07, 45.78 23.36, 62.05 2.27 M25.05 50.93 C37.8 30.58, 52 17.66, 67.04 2.63 M25.05 50.93 C41.71 31.92, 55.24 15.06, 67.04 2.63 M30.7 50.53 C38.2 41.54, 46.95 31.25, 72.68 2.23 M30.7 50.53 C37.73 39.18, 47.51 29.53, 72.68 2.23 M35.68 50.89 C44.79 41.75, 58.83 20.99, 77.67 2.59 M35.68 50.89 C50.28 34.2, 66.08 15.38, 77.67 2.59 M41.33 50.5 C58.4 36.53, 75.1 16.49, 83.31 2.2 M41.33 50.5 C56.77 34.54, 72.33 18.74, 83.31 2.2 M46.31 50.86 C55.47 35.78, 63.04 30.65, 88.3 2.56 M46.31 50.86 C53.63 42.11, 64.12 30.24, 88.3 2.56 M51.96 50.47 C62.79 36.94, 71.38 27.13, 93.94 2.16 M51.96 50.47 C71.28 30.31, 85.32 10.35, 93.94 2.16 M56.94 50.83 C71.23 37.89, 83.39 23.94, 98.93 2.52 M56.94 50.83 C68.99 38.99, 76.1 26.78, 98.93 2.52 M61.93 51.19 C74.6 40.02, 89.85 20.27, 103.92 2.88 M61.93 51.19 C71.75 42.46, 77 32.69, 103.92 2.88 M67.57 50.79 C83.31 35.98, 100.54 17.02, 109.56 2.49 M67.57 50.79 C84.19 36.67, 98.36 20.39, 109.56 2.49 M72.56 51.15 C85.03 36.62, 97.33 22.17, 114.55 2.85 M72.56 51.15 C89.03 32.37, 105.61 14.9, 114.55 2.85 M78.2 50.76 C87.55 41.62, 99.7 26.76, 120.19 2.46 M78.2 50.76 C87.19 38.8, 98.88 27.57, 120.19 2.46 M83.19 51.12 C94.34 37.71, 108.69 21.67, 125.18 2.82 M83.19 51.12 C97.61 34.99, 112.36 16.47, 125.18 2.82 M88.83 50.72 C106.43 36.7, 121.96 15.55, 130.82 2.42 M88.83 50.72 C100.35 39.57, 109.02 26.78, 130.82 2.42 M93.82 51.08 C111.68 35.21, 124.8 13.39, 134.5 4.29 M93.82 51.08 C104.45 39.93, 114.04 27.33, 134.5 4.29 M98.81 51.44 C109.87 37.75, 120.99 20.2, 136.2 8.42 M98.81 51.44 C113.26 34.39, 128.81 18.57, 136.2 8.42 M104.45 51.05 C116.27 38.89, 122.8 27.58, 138.57 11.8 M104.45 51.05 C117.17 34.57, 132.37 18.34, 138.57 11.8 M109.44 51.41 C121.98 37.22, 127.57 26.87, 138.3 18.2 M109.44 51.41 C119.34 40.24, 127.84 28.51, 138.3 18.2 M115.08 51.01 C123.06 39.78, 133.42 30.88, 138.04 24.6 M115.08 51.01 C121.28 43.46, 127.69 33.14, 138.04 24.6 M120.07 51.37 C124.35 42.43, 132.89 43.26, 138.44 30.24 M120.07 51.37 C126.42 43.34, 133.3 33.4, 138.44 30.24 M125.71 50.98 C131.51 48.25, 132.64 36.3, 138.18 36.64 M125.71 50.98 C129.19 45.75, 133.36 43.29, 138.18 36.64 M1.49 44.01 C1.49 44.01, 1.49 44.01, 1.49 44.01 M1.49 44.01 C1.49 44.01, 1.49 44.01, 1.49 44.01 M9.4 45.59 C6.44 42.83, 3.41 39.85, 1.1 38.37 M9.4 45.59 C7.5 43.4, 3.91 42.54, 1.1 38.37 M15.8 45.85 C12.65 44.67, 9.94 37.71, 1.46 33.38 M15.8 45.85 C10.39 40.83, 3.76 38.28, 1.46 33.38 M21.44 45.45 C13.99 41.89, 10.36 35.98, 1.06 27.74 M21.44 45.45 C14.45 39.96, 6.66 33.58, 1.06 27.74 M27.84 45.71 C19.91 40.23, 10.12 34.86, 1.42 22.75 M27.84 45.71 C17.13 38.54, 5.51 28.62, 1.42 22.75 M33.48 45.32 C28.11 34.05, 13.49 32.79, 1.03 17.11 M33.48 45.32 C20.5 35.83, 9.01 24.31, 1.03 17.11 M39.88 45.58 C26.08 33.68, 12.47 21.18, 1.39 12.12 M39.88 45.58 C28.06 35.02, 16.85 24.01, 1.39 12.12 M46.27 45.84 C35.06 31.92, 18.01 22.97, 1.75 7.14 M46.27 45.84 C30.37 30, 10.36 15.19, 1.75 7.14 M51.92 45.45 C39.29 33.94, 20.38 20.36, 2.86 2.8 M51.92 45.45 C34.03 32.64, 15.4 14.5, 2.86 2.8 M58.32 45.71 C38.02 28.89, 22.87 17.77, 7.75 1.75 M58.32 45.71 C39.96 28.24, 21.51 12.9, 7.75 1.75 M64.71 45.97 C40.36 29.26, 21.57 11.62, 11.88 0.05 M64.71 45.97 C46.26 33.1, 29.05 18.55, 11.88 0.05 M70.36 45.58 C53.17 26.05, 26.86 10.34, 14.51 -2.97 M70.36 45.58 C51.14 26.28, 30.43 8.53, 14.51 -2.97 M76.75 45.84 C56.86 27.2, 41.8 11.58, 20.91 -2.71 M76.75 45.84 C58.91 29.58, 42.53 16.43, 20.91 -2.71 M83.15 46.1 C62.01 30.49, 38.89 8.79, 27.3 -2.45 M83.15 46.1 C67.52 31.51, 52.53 18.89, 27.3 -2.45 M88.8 45.71 C77.34 33.42, 63.44 19.9, 32.95 -2.84 M88.8 45.71 C73.42 32.88, 57.34 16.42, 32.95 -2.84 M95.19 45.97 C73.73 26.69, 57.18 12.8, 39.34 -2.58 M95.19 45.97 C74.1 27.91, 56.57 14.09, 39.34 -2.58 M101.59 46.23 C82.6 28.64, 64.02 11.7, 45.74 -2.32 M101.59 46.23 C89.74 35.79, 74.65 23.97, 45.74 -2.32 M107.23 45.83 C90.13 28.74, 69.73 19.91, 51.39 -2.71 M107.23 45.83 C89.33 29.42, 68.82 13.23, 51.39 -2.71 M113.63 46.09 C93.31 30.04, 74.51 12.01, 57.78 -2.45 M113.63 46.09 C91.07 28.97, 69.79 9.1, 57.78 -2.45 M120.03 46.36 C103.43 34.09, 89.53 19.06, 64.18 -2.19 M120.03 46.36 C104.06 31.52, 90.23 18.15, 64.18 -2.19 M126.43 46.62 C110.88 31.97, 92.63 15.59, 69.82 -2.59 M126.43 46.62 C108.94 32.56, 94.35 16.73, 69.82 -2.59 M132.07 46.22 C112.29 27.81, 99.3 17.46, 76.22 -2.33 M132.07 46.22 C118.56 35.12, 99.9 20.4, 76.22 -2.33 M134.69 43.2 C117.29 27.94, 109.53 17.45, 82.62 -2.06 M134.69 43.2 C122.28 31.41, 108.84 16.57, 82.62 -2.06 M137.32 40.19 C121.52 27.41, 114.56 19.7, 88.26 -2.46 M137.32 40.19 C124.97 28.98, 111.1 17.46, 88.26 -2.46 M136.92 34.54 C122.92 23.1, 111.97 11.23, 94.66 -2.2 M136.92 34.54 C122.64 23.02, 107.33 8.43, 94.66 -2.2 M137.28 29.56 C129.58 25.58, 115.64 15.19, 101.06 -1.94 M137.28 29.56 C127.82 21.65, 113.41 10.2, 101.06 -1.94 M137.64 24.57 C124.17 17.35, 117.32 9.09, 106.7 -2.33 M137.64 24.57 C132.02 17.62, 123.6 14.49, 106.7 -2.33 M137.25 18.93 C131.33 15.92, 126.51 12.3, 113.1 -2.07 M137.25 18.93 C129.51 13.35, 121.78 7.31, 113.1 -2.07 M137.61 13.94 C130.28 7.02, 124.01 0.58, 119.5 -1.81 M137.61 13.94 C132.16 10.46, 125.23 1.5, 119.5 -1.81 M137.22 8.3 C134.03 7.38, 131.53 3.42, 125.14 -2.2 M137.22 8.3 C135.65 5.53, 131.09 2.31, 125.14 -2.2" stroke="#b2f2bb" stroke-width="0.5" fill="none"></path><path d="M12.25 0 M12.25 0 C54.88 -1.7, 98.14 -0.26, 123.75 0 M12.25 0 C49.64 2.68, 90.04 3.6, 123.75 0 M123.75 0 C130.39 -2.12, 134.05 2, 136 12.25 M123.75 0 C135.12 1.66, 138.33 3.5, 136 12.25 M136 12.25 C133.2 21.81, 135.43 21.65, 136 36.75 M136 12.25 C135.12 20.3, 137.5 29.22, 136 36.75 M136 36.75 C132.82 44.18, 128.49 48.85, 123.75 49 M136 36.75 C137.68 41.47, 130.99 51.23, 123.75 49 M123.75 49 C80.99 44.26, 45.18 47.27, 12.25 49 M123.75 49 C91.71 48.17, 60.85 50.01, 12.25 49 M12.25 49 C2.59 50.61, -3.72 48.26, 0 36.75 M12.25 49 C2.28 50.87, -2.65 44.02, 0 36.75 M0 36.75 C2.11 28.47, 3.23 20.29, 0 12.25 M0 36.75 C-0.28 27.74, 0.09 17.65, 0 12.25 M0 12.25 C1.88 7.73, 0.17 0.6, 12.25 0 M0 12.25 C-2.19 6.48, 4.4 2.1, 12.25 0" stroke="#1e1e1e" stroke-width="1" fill="none"></path></g><g transform="translate(111.79999923706055 239.3) rotate(0 56.20000076293945 19.19999999999999)"><text x="56.20000076293945" y="0" font-family="Cascadia, Segoe UI Emoji" font-size="16px" fill="#1e1e1e" text-anchor="middle" style="white-space: pre;" direction="ltr" dominant-baseline="text-before-edge">172.17.0.2</text><text x="56.20000076293945" y="19.2" font-family="Cascadia, Segoe UI Emoji" font-size="16px" fill="#1e1e1e" text-anchor="middle" style="white-space: pre;" direction="ltr" dominant-baseline="text-before-edge">86:eth0@if87</text></g><g stroke-linecap="round" transform="translate(506.8222328882066 524.7823799122223) rotate(0.2931972654488163 203 39.5)"><path d="M16.53 -2.79 L390.39 1.09 L401.15 4.2 L401.32 10.19 L403.82 64.67 L404.61 76.79 L394.41 78.35 L389.26 78.1 L18.82 82.32 L6.01 76.01 L-1.83 68.98 L1.56 16.3 L-2.48 9.44 L2.71 2.27 L8.73 4.12 L16.47 -1.72" stroke="none" stroke-width="0" fill="#38d9a9"></path><path d="M19.75 0 M19.75 0 C165.35 5.82, 308.24 2.19, 386.25 0 M386.25 0 C397.56 2.55, 402.71 2.59, 406 19.75 M406 19.75 C409.76 30.87, 404.56 40.62, 406 59.25 M406 59.25 C405.81 75.78, 402.42 80.98, 386.25 79 M386.25 79 C254.71 84.07, 124.94 83.49, 19.75 79 M19.75 79 C8.51 80, 2.02 71.74, 0 59.25 M0 59.25 C0.04 49.32, -2.49 34.97, 0 19.75 M0 19.75 C0.17 5.83, 3.84 -1.65, 19.75 0" stroke="#1e1e1e" stroke-width="2.5" fill="none" stroke-dasharray="8 10"></path></g><g transform="translate(635.2722298364488 541.2823799122223) rotate(0.2931972654488163 74.55000305175781 23)"><text x="74.55000305175781" y="0" font-family="Helvetica, Segoe UI Emoji" font-size="20px" fill="#ffffff" text-anchor="middle" style="white-space: pre;" direction="ltr" dominant-baseline="text-before-edge">br-cdd0c0a64fc6</text><text x="74.55000305175781" y="23" font-family="Helvetica, Segoe UI Emoji" font-size="20px" fill="#ffffff" text-anchor="middle" style="white-space: pre;" direction="ltr" dominant-baseline="text-before-edge">172.18.0.1</text></g><g stroke-linecap="round" transform="translate(546.25 143.5) rotate(0 152.5 44)"><path d="M3.39 8.25 C3.39 8.25, 3.39 8.25, 3.39 8.25 M3.39 8.25 C3.39 8.25, 3.39 8.25, 3.39 8.25 M4.18 19.54 C9.96 15.81, 14.82 12.98, 14.02 8.22 M4.18 19.54 C9 14.26, 10.2 12.27, 14.02 8.22 M3.66 32.33 C11.9 18.9, 20.66 13.95, 27.28 5.16 M3.66 32.33 C9.76 25.16, 13.09 19.59, 27.28 5.16 M3.79 44.37 C10.63 36.63, 22.22 24.38, 37.91 5.13 M3.79 44.37 C13.49 34.11, 22.89 21.27, 37.91 5.13 M3.93 56.41 C14.43 36.49, 33.41 25.84, 48.54 5.09 M3.93 56.41 C21.27 38.33, 34.87 19.51, 48.54 5.09 M1.43 71.47 C16.31 56.11, 27 45.52, 59.17 5.06 M1.43 71.47 C18.22 54.25, 35.76 36.36, 59.17 5.06 M4.19 80.49 C21.42 60.53, 46.6 39.92, 69.8 5.02 M4.19 80.49 C17.98 59.71, 33.94 43.11, 69.8 5.02 M10.89 84.99 C38.16 58.41, 64.39 26.49, 80.43 4.99 M10.89 84.99 C27.4 64.47, 43.67 45.95, 80.43 4.99 M16.92 90.24 C45.61 59.1, 71.76 23.48, 91.06 4.95 M16.92 90.24 C30.67 71.62, 49.87 54.96, 91.06 4.95 M27.55 90.2 C53.47 62.96, 82.01 26.28, 101.69 4.92 M27.55 90.2 C44.2 71, 63.53 54.78, 101.69 4.92 M38.18 90.17 C63.27 63.5, 81.33 36.79, 111.66 5.64 M38.18 90.17 C55.12 69.76, 72.07 49.57, 111.66 5.64 M48.16 90.89 C72.2 60.35, 103.03 27.16, 122.29 5.61 M48.16 90.89 C76.62 56.04, 103.09 23.89, 122.29 5.61 M58.79 90.85 C82.4 59.71, 109.3 26.37, 132.92 5.57 M58.79 90.85 C85.68 56.47, 117.28 26.52, 132.92 5.57 M69.42 90.82 C95.33 61.02, 117.73 32.67, 143.55 5.54 M69.42 90.82 C92.78 61.83, 120.65 34.04, 143.55 5.54 M80.05 90.78 C107.91 58.58, 137.64 27.02, 154.18 5.5 M80.05 90.78 C105.65 63.46, 129.83 32.99, 154.18 5.5 M90.68 90.75 C119.72 60.81, 145.53 29.42, 164.81 5.47 M90.68 90.75 C114.21 63.74, 134.91 38.11, 164.81 5.47 M101.31 90.72 C119.52 69.76, 146.49 46.94, 175.44 5.43 M101.31 90.72 C119.09 70.78, 135.86 49.73, 175.44 5.43 M111.94 90.68 C130.56 68.46, 152.01 47.28, 186.07 5.4 M111.94 90.68 C135.41 62.18, 161.77 35.41, 186.07 5.4 M122.57 90.65 C140.07 61.86, 165 44.43, 196.7 5.36 M122.57 90.65 C143.76 66.78, 166.39 38.57, 196.7 5.36 M132.54 91.37 C159.88 63.78, 188.99 31.81, 206.68 6.08 M132.54 91.37 C159.37 59.19, 185.25 27.77, 206.68 6.08 M143.17 91.33 C159.71 76.86, 175.74 53.86, 217.31 6.05 M143.17 91.33 C160.13 71.58, 173.43 56.36, 217.31 6.05 M153.8 91.3 C173.47 73.13, 187.43 56.63, 227.94 6.02 M153.8 91.3 C177.58 66.57, 198.12 44.13, 227.94 6.02 M164.43 91.26 C185.83 66.96, 207.4 41.65, 238.57 5.98 M164.43 91.26 C182.68 71.69, 198.84 51.76, 238.57 5.98 M175.06 91.23 C203.11 59.3, 237.32 26.26, 249.2 5.95 M175.06 91.23 C201.23 67.08, 222.1 39.18, 249.2 5.95 M185.69 91.19 C197.55 77.22, 215.73 54.82, 259.83 5.91 M185.69 91.19 C212.94 58.9, 240.61 28.89, 259.83 5.91 M196.32 91.16 C215.38 65.26, 238.02 40.02, 270.46 5.88 M196.32 91.16 C216.78 65.71, 235.63 44.27, 270.46 5.88 M206.95 91.13 C227.61 68.37, 245.77 44.88, 281.09 5.84 M206.95 91.13 C222.4 71.23, 236.41 52.83, 281.09 5.84 M217.58 91.09 C235.23 71.47, 258.08 45.49, 294.34 2.79 M217.58 91.09 C235.11 73.63, 248.54 56.13, 294.34 2.79 M227.56 91.81 C249.41 64.93, 269.02 46.18, 300.38 8.04 M227.56 91.81 C247.53 70.44, 266.58 44.67, 300.38 8.04 M238.19 91.78 C268.86 65.91, 291.52 32.24, 307.07 12.53 M238.19 91.78 C263.35 64.31, 284.81 33.68, 307.07 12.53 M248.82 91.74 C267.79 75.04, 278.13 62.44, 309.83 21.55 M248.82 91.74 C264.73 70.12, 285.16 48.75, 309.83 21.55 M259.45 91.71 C282.41 69.07, 301.15 42.55, 309.96 33.6 M259.45 91.71 C280.66 69.5, 297.66 47.74, 309.96 33.6 M270.08 91.67 C275.52 78.4, 285.73 66.76, 309.44 46.39 M270.08 91.67 C279.62 81.38, 285.88 72.35, 309.44 46.39 M283.33 88.62 C289.59 75.97, 303.69 65.33, 309.57 58.43 M283.33 88.62 C290.75 79.39, 300.23 70.2, 309.57 58.43" stroke="#ffc9c9" stroke-width="1" fill="none"></path><path d="M22 0 M22 0 C94.87 -2, 171.92 -1.88, 283 0 M22 0 C107.99 -4.76, 191.02 -2.69, 283 0 M283 0 C297.86 -1.69, 305.77 8.26, 305 22 M283 0 C298.75 1.2, 301.92 2.74, 305 22 M305 22 C301.24 37.08, 306.19 55.91, 305 66 M305 22 C302.79 40.16, 305.51 54.54, 305 66 M305 66 C303.56 84.13, 295.51 91.69, 283 88 M305 66 C306.32 76.88, 294.99 87.7, 283 88 M283 88 C209.78 84.19, 142.31 86.49, 22 88 M283 88 C207.38 89.33, 128.9 89.62, 22 88 M22 88 C3.75 90.2, -3.37 81.64, 0 66 M22 88 C7.7 87.58, -3.88 82.84, 0 66 M0 66 C0.91 54.85, 3.24 40.74, 0 22 M0 66 C1.16 54.16, 0.64 39.93, 0 22 M0 22 C1.21 9.91, 6.74 2.93, 22 0 M0 22 C0.8 10.69, 4.48 3.9, 22 0" stroke="#1e1e1e" stroke-width="2" fill="none"></path></g><g transform="translate(616.6166687011719 175.5) rotate(0 82.13333129882812 12)"><text x="82.13333129882812" y="0" font-family="Cascadia, Segoe UI Emoji" font-size="20px" fill="#1e1e1e" text-anchor="middle" style="white-space: pre;" direction="ltr" dominant-baseline="text-before-edge">ContainerB(c2)</text></g><g stroke-linecap="round" transform="translate(705.25 235.5) rotate(0 68 30)"><path d="M3.99 3.47 C3.99 3.47, 3.99 3.47, 3.99 3.47 M3.99 3.47 C3.99 3.47, 3.99 3.47, 3.99 3.47 M1.11 12.89 C1.86 6.67, 4.7 3.43, 10.95 1.57 M1.11 12.89 C4.23 11.66, 4.29 6.73, 10.95 1.57 M1.5 18.53 C9.6 16.96, 13.6 10.01, 16.59 1.17 M1.5 18.53 C8.37 14.1, 12.71 6.42, 16.59 1.17 M1.24 24.93 C6.31 13.98, 13.48 8.59, 21.58 1.53 M1.24 24.93 C9.32 16.87, 12.28 12.18, 21.58 1.53 M1.63 30.57 C10.28 22.75, 18.69 6.5, 27.22 1.14 M1.63 30.57 C11.08 18.64, 18.29 9.46, 27.22 1.14 M1.37 36.97 C12.08 23.03, 22.8 10.23, 32.21 1.5 M1.37 36.97 C12.47 22.34, 23.32 10.87, 32.21 1.5 M1.11 43.37 C7.24 34.12, 19.43 23.58, 37.85 1.1 M1.11 43.37 C14.46 27.78, 25.21 13.47, 37.85 1.1 M1.51 49.01 C18.61 32.48, 29.24 16.52, 42.84 1.46 M1.51 49.01 C14.47 35.11, 30.42 17.34, 42.84 1.46 M3.21 53.14 C10.1 38.22, 21.84 24.99, 47.83 1.82 M3.21 53.14 C16.94 40.62, 29.73 25, 47.83 1.82 M4.92 57.28 C21.64 42.31, 31.26 23.92, 53.47 1.43 M4.92 57.28 C21.01 40.15, 33.57 27.09, 53.47 1.43 M8.59 59.15 C20.94 44.87, 26.58 37.45, 58.46 1.79 M8.59 59.15 C28.92 36.74, 44.97 16.12, 58.46 1.79 M13.58 59.51 C35.66 34.98, 53.35 18.11, 64.1 1.39 M13.58 59.51 C25.81 43.42, 38.92 30.03, 64.1 1.39 M19.22 59.11 C34.7 42.58, 40.43 27.3, 69.09 1.75 M19.22 59.11 C38.51 37.41, 55.36 18.18, 69.09 1.75 M24.21 59.47 C38.71 37.76, 58.67 17.39, 74.07 2.11 M24.21 59.47 C35.93 47.97, 45.82 33.76, 74.07 2.11 M29.85 59.08 C41.35 43.29, 60.23 22.37, 79.72 1.72 M29.85 59.08 C48.46 38.18, 64.87 17.88, 79.72 1.72 M34.84 59.44 C44.24 45.56, 53.3 30.05, 84.7 2.08 M34.84 59.44 C54.35 39.37, 70.39 18.07, 84.7 2.08 M39.83 59.8 C50.83 49.64, 59.74 37.06, 90.35 1.69 M39.83 59.8 C55.71 42.39, 67.13 26.69, 90.35 1.69 M45.47 59.4 C56.08 48.47, 66.81 33.44, 95.33 2.05 M45.47 59.4 C63.63 37.06, 81.62 19.23, 95.33 2.05 M50.46 59.76 C64.02 43.48, 82.19 23.27, 100.98 1.65 M50.46 59.76 C69.4 35.18, 87.26 12.82, 100.98 1.65 M56.1 59.37 C65.43 41.82, 77.94 26.76, 105.96 2.01 M56.1 59.37 C67.99 44.66, 81.44 31.28, 105.96 2.01 M61.09 59.73 C81.05 40.47, 100.24 16.16, 110.95 2.37 M61.09 59.73 C72.72 43.87, 87.27 28.58, 110.95 2.37 M66.73 59.33 C80.67 38.78, 101.13 23.27, 116.59 1.98 M66.73 59.33 C75.59 48.31, 88.02 33.77, 116.59 1.98 M71.72 59.69 C90.64 41.22, 112.75 20.49, 121.58 2.34 M71.72 59.69 C92 41.14, 106.75 18.71, 121.58 2.34 M76.71 60.05 C94.56 36.73, 115.19 17.33, 127.88 1.19 M76.71 60.05 C92.78 43.24, 107.3 27.13, 127.88 1.19 M82.35 59.66 C97.17 42.03, 115.39 24.26, 131.55 3.06 M82.35 59.66 C96.17 44.36, 107.75 31.29, 131.55 3.06 M87.34 60.02 C99.4 45.35, 120.2 26.53, 134.57 5.68 M87.34 60.02 C102.88 41.07, 118.14 25.3, 134.57 5.68 M92.98 59.63 C104.09 44.97, 114.92 31.73, 136.28 9.81 M92.98 59.63 C105.87 46.32, 114.96 34.06, 136.28 9.81 M97.97 59.99 C105.24 45.49, 121.34 33.65, 137.99 13.95 M97.97 59.99 C106.85 50.9, 115.71 40.49, 137.99 13.95 M103.61 59.59 C110.1 44.89, 120.13 34.88, 138.38 19.59 M103.61 59.59 C114.61 47.52, 125.38 32.73, 138.38 19.59 M108.6 59.95 C114.93 48.18, 129.12 39.99, 138.12 25.99 M108.6 59.95 C120.85 47.83, 128.78 33.54, 138.12 25.99 M113.58 60.31 C123.84 54.38, 128.22 47.6, 137.86 32.39 M113.58 60.31 C122.12 49.23, 131.49 41.45, 137.86 32.39 M119.23 59.92 C123.96 54.06, 128.89 47.99, 137.6 38.78 M119.23 59.92 C124.52 56.82, 126.11 51.92, 137.6 38.78 M122.9 61.79 C126.97 58.84, 131.08 51.66, 137.99 44.43 M122.9 61.79 C127.97 56.4, 133.07 49.31, 137.99 44.43 M3.95 56.42 C3.95 56.42, 3.95 56.42, 3.95 56.42 M3.95 56.42 C3.95 56.42, 3.95 56.42, 3.95 56.42 M10.35 56.69 C7.49 54.51, 5.16 51.03, 0.54 48.16 M10.35 56.69 C7.72 53.81, 2.24 51.42, 0.54 48.16 M16.75 56.95 C12.88 50.9, 6.55 49.09, 0.9 43.17 M16.75 56.95 C12.1 52.71, 5.91 47.81, 0.9 43.17 M22.39 56.55 C13.03 46.23, 6.57 42.6, 0.5 37.53 M22.39 56.55 C14.78 51.94, 12.23 45.19, 0.5 37.53 M28.79 56.81 C17.83 51.11, 9.02 37.67, 0.86 32.54 M28.79 56.81 C19.95 46.6, 8.43 39.13, 0.86 32.54 M35.19 57.08 C25.42 46.26, 8.44 33.73, 0.47 26.9 M35.19 57.08 C24.64 46.91, 10.47 37.69, 0.47 26.9 M41.58 57.34 C29.54 47.06, 20.34 43.7, 0.83 21.91 M41.58 57.34 C28.73 44.27, 11.52 30.76, 0.83 21.91 M47.23 56.94 C30.33 47.69, 23.55 28.93, 0.43 16.27 M47.23 56.94 C27.2 40.43, 9.47 24.25, 0.43 16.27 M53.62 57.2 C35.61 47.53, 20.48 36.47, 0.79 11.28 M53.62 57.2 C36.07 39.25, 15.75 22.61, 0.79 11.28 M60.02 57.47 C36.28 44.59, 19.03 26.89, 2.66 7.61 M60.02 57.47 C39.93 38.28, 21.87 20.87, 2.66 7.61 M65.66 57.07 C44.56 38.29, 21.85 24.54, 3.78 3.27 M65.66 57.07 C53.16 48.52, 37.51 35.79, 3.78 3.27 M72.06 57.33 C54.02 41.76, 28.87 23.71, 8.67 2.22 M72.06 57.33 C56.46 45.1, 41.53 30.19, 8.67 2.22 M78.46 57.59 C56.36 43.88, 36.02 26.19, 12.8 0.52 M78.46 57.59 C61.19 40.93, 41.77 25.09, 12.8 0.52 M84.1 57.2 C63.59 34.42, 37.61 16.82, 16.18 -1.85 M84.1 57.2 C60.62 36.05, 37.57 15.34, 16.18 -1.85 M90.5 57.46 C69.42 34.82, 39.86 19.07, 22.58 -1.58 M90.5 57.46 C74.6 43.31, 59.36 27.98, 22.58 -1.58 M96.9 57.72 C77.05 38.84, 54 20.12, 28.98 -1.32 M96.9 57.72 C69.47 37.03, 43.26 13.36, 28.98 -1.32 M102.54 57.33 C93 43.03, 76.53 33.79, 34.62 -1.72 M102.54 57.33 C86.52 42.21, 72.99 32.71, 34.62 -1.72 M108.94 57.59 C89.26 35.59, 67.69 22.4, 41.02 -1.46 M108.94 57.59 C92.55 47.81, 81.49 32.63, 41.02 -1.46 M115.34 57.85 C94.54 40.58, 79.12 22.89, 47.41 -1.19 M115.34 57.85 C88.82 34.88, 61.5 13.84, 47.41 -1.19 M122.49 58.77 C106.71 45.44, 96.6 32.41, 53.06 -1.59 M122.49 58.77 C98.99 38.93, 80.63 21.04, 53.06 -1.59 M127.38 57.72 C108.87 39.8, 85.5 22.98, 59.45 -1.33 M127.38 57.72 C104.17 33.91, 79.79 12.06, 59.45 -1.33 M131.51 56.01 C107.06 34.17, 81.39 10.97, 65.85 -1.07 M131.51 56.01 C117.78 41.63, 102.54 30.11, 65.85 -1.07 M134.14 52.99 C107.91 29.96, 88.38 7.36, 71.5 -1.46 M134.14 52.99 C118.59 38.6, 103.06 25.09, 71.5 -1.46 M136.76 49.97 C120.15 32.41, 105.84 23.2, 77.89 -1.2 M136.76 49.97 C111.29 31.13, 91.35 10.87, 77.89 -1.2 M136.37 44.33 C118.22 30.41, 109.2 20.02, 84.29 -0.94 M136.37 44.33 C126.45 34.03, 112.56 25.39, 84.29 -0.94 M136.73 39.34 C118.28 22.74, 101.48 3.97, 89.93 -1.33 M136.73 39.34 C118.84 23.62, 101.84 10.81, 89.93 -1.33 M137.09 34.36 C122.48 24.99, 114.07 9.77, 96.33 -1.07 M137.09 34.36 C128.72 29.04, 120.6 21.87, 96.33 -1.07 M136.69 28.71 C127.74 21.11, 113.01 10.23, 102.73 -0.81 M136.69 28.71 C129.09 20.36, 119.03 14.9, 102.73 -0.81 M137.05 23.73 C123.5 13.78, 118.14 11.11, 109.13 -0.55 M137.05 23.73 C130.3 14.86, 120.18 8.84, 109.13 -0.55 M137.41 18.74 C130.41 13.1, 126.65 6.71, 114.77 -0.94 M137.41 18.74 C130.3 12.92, 121.32 6.36, 114.77 -0.94 M137.02 13.1 C136.21 5.76, 125.62 9.53, 121.17 -0.68 M137.02 13.1 C129.51 6.47, 126.9 2.8, 121.17 -0.68" stroke="#b2f2bb" stroke-width="0.5" fill="none"></path><path d="M15 0 M15 0 C44.83 3.53, 76.86 -0.57, 121 0 M15 0 C54.65 -1.51, 93.64 -0.38, 121 0 M121 0 C133.3 1.41, 136.67 4.86, 136 15 M121 0 C128.94 -4.19, 134.24 2.1, 136 15 M136 15 C133.99 23.13, 131.88 30.2, 136 45 M136 15 C137.56 23.09, 136.1 29.98, 136 45 M136 45 C137.39 56.21, 130.54 61.81, 121 60 M136 45 C138.05 58.83, 127.65 56.99, 121 60 M121 60 C83.28 62.22, 37.77 61.73, 15 60 M121 60 C97.38 59.85, 74.31 61.8, 15 60 M15 60 C3.29 63.58, -0.23 55.62, 0 45 M15 60 C8.35 61.89, 1.71 57.14, 0 45 M0 45 C-1.73 39.48, 4.25 25.07, 0 15 M0 45 C0.59 36.09, -1.31 24.49, 0 15 M0 15 C0.38 1.16, 2.47 -1.83, 15 0 M0 15 C4.06 5.29, 5.64 -0.14, 15 0" stroke="#1e1e1e" stroke-width="1" fill="none"></path></g><g transform="translate(717.0499992370605 246.3) rotate(0 56.20000076293945 19.19999999999999)"><text x="56.20000076293945" y="0" font-family="Cascadia, Segoe UI Emoji" font-size="16px" fill="#1e1e1e" text-anchor="middle" style="white-space: pre;" direction="ltr" dominant-baseline="text-before-edge">172.18.0.2</text><text x="56.20000076293945" y="19.2" font-family="Cascadia, Segoe UI Emoji" font-size="16px" fill="#1e1e1e" text-anchor="middle" style="white-space: pre;" direction="ltr" dominant-baseline="text-before-edge">88:eth0@if89</text></g><g stroke-linecap="round" transform="translate(65 455) rotate(0 94 29)"><path d="M5.55 2.17 C5.55 2.17, 5.55 2.17, 5.55 2.17 M5.55 2.17 C5.55 2.17, 5.55 2.17, 5.55 2.17 M2.01 12.34 C4.91 10.78, 9.32 7.28, 12.5 0.27 M2.01 12.34 C4.81 10.52, 5.2 5.62, 12.5 0.27 M1.74 18.74 C6.31 8.92, 9.17 8.09, 16.83 1.38 M1.74 18.74 C4.42 13.47, 10.02 10.25, 16.83 1.38 M2.14 24.38 C5.4 17.31, 15.81 6.54, 21.82 1.74 M2.14 24.38 C7.97 18.16, 12.49 13.58, 21.82 1.74 M1.88 30.78 C12.54 22.16, 16.44 18.33, 26.81 2.1 M1.88 30.78 C12.21 21.14, 19.36 7.93, 26.81 2.1 M1.62 37.18 C11.8 22.49, 23.91 17.44, 32.45 1.71 M1.62 37.18 C9.42 24.87, 20.89 15.48, 32.45 1.71 M2.01 42.82 C17.21 33.34, 23.63 18.39, 37.44 2.07 M2.01 42.82 C11.49 32.27, 21.71 23.08, 37.44 2.07 M2.41 48.47 C14.77 39.16, 20.2 27.22, 43.08 1.67 M2.41 48.47 C12.93 34.88, 23.29 21.29, 43.08 1.67 M4.11 52.6 C17.71 38.09, 23.35 27.19, 48.07 2.03 M4.11 52.6 C16.56 34.84, 33.11 19.14, 48.07 2.03 M5.82 56.73 C19.94 41.05, 41.81 18.03, 53.71 1.64 M5.82 56.73 C21.61 37.76, 36.58 20.98, 53.71 1.64 M9.49 58.6 C26.48 43.35, 35.83 28.17, 58.7 2 M9.49 58.6 C19.93 42.26, 33.22 31.74, 58.7 2 M15.14 58.21 C27.88 43.55, 42.4 32.35, 63.69 2.36 M15.14 58.21 C28.95 41.08, 42.8 26.54, 63.69 2.36 M20.12 58.57 C39.01 39.46, 50.45 19.9, 69.33 1.97 M20.12 58.57 C31.69 43.09, 44.74 30.56, 69.33 1.97 M25.77 58.17 C41.6 43.27, 48.39 26.64, 74.32 2.33 M25.77 58.17 C43.08 38, 59.98 18.51, 74.32 2.33 M30.75 58.53 C43.65 41.75, 64.45 18.73, 79.96 1.93 M30.75 58.53 C44.12 40.09, 59.11 26.45, 79.96 1.93 M35.74 58.89 C49.64 42.18, 73.05 19.4, 84.95 2.29 M35.74 58.89 C52.65 36.19, 69.83 20.06, 84.95 2.29 M41.38 58.5 C52 39.62, 68.22 28.64, 90.59 1.9 M41.38 58.5 C61.23 37.42, 79.85 15.47, 90.59 1.9 M46.37 58.86 C58.87 40.34, 72.22 25.59, 95.58 2.26 M46.37 58.86 C62 38.48, 82.99 18.47, 95.58 2.26 M52.01 58.47 C73.2 34.46, 89.75 16.03, 101.22 1.86 M52.01 58.47 C64.59 44.82, 75.24 34.07, 101.22 1.86 M57 58.83 C73.32 38.72, 90.51 11.84, 106.21 2.22 M57 58.83 C69.3 42.5, 82.33 30.95, 106.21 2.22 M62.64 58.43 C71.19 45.93, 83.47 31.07, 111.19 2.58 M62.64 58.43 C76.1 44.45, 91.08 27.92, 111.19 2.58 M67.63 58.79 C75.81 44.47, 94.65 30.64, 116.84 2.19 M67.63 58.79 C83.5 39.9, 97.45 21.4, 116.84 2.19 M73.27 58.4 C86.03 43.95, 103.76 26.88, 121.82 2.55 M73.27 58.4 C85.8 43.37, 99.61 27.69, 121.82 2.55 M78.26 58.76 C89.62 46.83, 104.8 24.51, 127.47 2.15 M78.26 58.76 C89.43 44.18, 103.83 30.21, 127.47 2.15 M83.25 59.12 C94.06 48.69, 103.1 35.64, 132.45 2.51 M83.25 59.12 C95.92 44.8, 106.53 31.94, 132.45 2.51 M88.89 58.72 C105.21 39.03, 127.48 12.89, 138.1 2.12 M88.89 58.72 C98.8 43.44, 111.97 32.73, 138.1 2.12 M93.88 59.08 C110.86 44.01, 124.45 29.62, 143.08 2.48 M93.88 59.08 C110.6 40.83, 126.01 20.65, 143.08 2.48 M99.52 58.69 C113.63 46.55, 123.56 31.44, 148.07 2.84 M99.52 58.69 C117.72 35.94, 134.05 15.46, 148.07 2.84 M104.51 59.05 C122.98 34.8, 141.77 12.14, 153.71 2.44 M104.51 59.05 C124.25 37.51, 141.38 15.61, 153.71 2.44 M110.15 58.65 C121.88 39.08, 142.34 21.28, 158.7 2.8 M110.15 58.65 C124.96 42.18, 138.66 27.17, 158.7 2.8 M115.14 59.01 C128.38 44.05, 144.65 25.91, 164.34 2.41 M115.14 59.01 C130.74 41.27, 146.15 19.44, 164.34 2.41 M120.13 59.37 C137.15 43.17, 149.59 22.28, 169.33 2.77 M120.13 59.37 C140 38.9, 157.31 17.13, 169.33 2.77 M125.77 58.98 C144.71 42.83, 157.23 19.12, 174.97 2.38 M125.77 58.98 C142.94 40.68, 156.67 23.37, 174.97 2.38 M130.76 59.34 C148.08 37.09, 168.57 18.75, 180.62 1.98 M130.76 59.34 C140.02 49.07, 152.23 37.14, 180.62 1.98 M136.4 58.94 C151.62 42.68, 159.79 29.25, 184.29 3.85 M136.4 58.94 C153.82 39.07, 170.01 17.51, 184.29 3.85 M141.39 59.3 C156.52 41.21, 163.93 30.94, 186 7.98 M141.39 59.3 C151.86 44.06, 164.99 32.27, 186 7.98 M147.03 58.91 C164.65 43.63, 172.46 28.23, 188.36 11.36 M147.03 58.91 C156.62 47.8, 162.12 40.06, 188.36 11.36 M152.02 59.27 C166.07 50.52, 171.64 37.87, 188.1 17.76 M152.02 59.27 C160.84 51.5, 167.53 40.92, 188.1 17.76 M157.66 58.88 C164.56 54.25, 170.56 40.96, 187.84 24.16 M157.66 58.88 C163.84 51.59, 171.87 41.79, 187.84 24.16 M162.65 59.24 C171.18 54.03, 173.52 51.21, 188.23 29.8 M162.65 59.24 C167.77 49.78, 176.55 43.31, 188.23 29.8 M167.63 59.6 C173.09 49.84, 180.89 45.49, 187.97 36.2 M167.63 59.6 C171.67 53.47, 180.29 49.23, 187.97 36.2 M173.93 58.45 C178.68 54.46, 188.77 45.62, 187.71 42.6 M173.93 58.45 C177.64 56.3, 179.51 50.88, 187.71 42.6 M180.89 56.54 C184.77 54.31, 184.81 51.71, 187.45 49 M180.89 56.54 C182.17 54.71, 184.22 52.45, 187.45 49 M3.32 54.11 C3.32 54.11, 3.32 54.11, 3.32 54.11 M3.32 54.11 C3.32 54.11, 3.32 54.11, 3.32 54.11 M10.47 55.02 C8.79 51.48, 6.46 49.49, 0.66 46.5 M10.47 55.02 C7.35 51.08, 3.59 47.41, 0.66 46.5 M16.11 54.63 C10.72 51.21, 3.17 46.65, 0.26 40.85 M16.11 54.63 C10.83 48.76, 3.8 43.94, 0.26 40.85 M22.51 54.89 C16.35 44.93, 6.32 38.07, 0.62 35.87 M22.51 54.89 C17.31 47.06, 10.56 42.85, 0.62 35.87 M28.91 55.15 C22.57 48.7, 15.84 39.94, 0.98 30.88 M28.91 55.15 C22.29 49.84, 15.52 41.49, 0.98 30.88 M34.55 54.76 C21.26 45.15, 6.51 33.61, 0.59 25.24 M34.55 54.76 C21.39 43.5, 10.5 34.14, 0.59 25.24 M40.95 55.02 C31.43 43.99, 18.79 32.59, 0.95 20.25 M40.95 55.02 C32.42 47.38, 26.48 39.61, 0.95 20.25 M47.35 55.28 C28.7 40.3, 11.29 25.32, 0.55 14.61 M47.35 55.28 C30.25 42.82, 14.57 24.19, 0.55 14.61 M52.99 54.89 C43.06 46.31, 29.23 31.97, 0.91 9.62 M52.99 54.89 C33.84 37.65, 13.64 20, 0.91 9.62 M59.39 55.15 C40.04 37.78, 21.45 25.61, 3.54 6.6 M59.39 55.15 C38.48 35.22, 16.38 20.72, 3.54 6.6 M65.03 54.75 C49.25 42, 42.07 28.13, 5.41 2.92 M65.03 54.75 C48.89 42.9, 32.18 27.69, 5.41 2.92 M71.43 55.01 C50.17 39.96, 34.41 17.37, 8.03 -0.09 M71.43 55.01 C51.6 35.28, 29.99 15.26, 8.03 -0.09 M77.83 55.28 C51.92 32.84, 32.09 8.79, 12.92 -1.15 M77.83 55.28 C59.86 39.06, 45.02 25.58, 12.92 -1.15 M83.47 54.88 C69.83 46.8, 53.28 29.88, 17.05 -2.85 M83.47 54.88 C63.75 40.35, 48.06 26.01, 17.05 -2.85 M89.87 55.14 C72.07 40.19, 44.55 15.81, 23.45 -2.59 M89.87 55.14 C74.05 42.25, 60.5 27.65, 23.45 -2.59 M96.26 55.4 C70.24 38.94, 51.12 18.33, 29.1 -2.98 M96.26 55.4 C78.65 39.25, 59.32 24.48, 29.1 -2.98 M101.91 55.01 C78.63 38.61, 61.42 19.47, 35.49 -2.72 M101.91 55.01 C85.87 41.46, 68.39 26.4, 35.49 -2.72 M108.31 55.27 C88.62 35.47, 63.96 19.15, 41.89 -2.46 M108.31 55.27 C90.53 40.92, 72.57 24.21, 41.89 -2.46 M114.7 55.53 C100.51 43.6, 85.86 31.56, 47.53 -2.86 M114.7 55.53 C99.45 44.93, 85.92 28.22, 47.53 -2.86 M120.35 55.14 C102.62 38.47, 94.71 29.84, 53.93 -2.6 M120.35 55.14 C102.36 39.9, 82.17 20.24, 53.93 -2.6 M126.74 55.4 C106.34 39.91, 87.12 20.17, 60.33 -2.33 M126.74 55.4 C109.81 38.34, 87.95 22.99, 60.33 -2.33 M133.14 55.66 C112.22 35.35, 91.23 18.36, 65.97 -2.73 M133.14 55.66 C117.3 39.63, 100.22 26.43, 65.97 -2.73 M138.78 55.27 C126.55 45.47, 110.8 30.78, 72.37 -2.47 M138.78 55.27 C113.59 31.68, 87.56 10.53, 72.37 -2.47 M145.18 55.53 C126.48 35.18, 96.34 11.03, 78.01 -2.86 M145.18 55.53 C125.55 39.43, 105.9 21.28, 78.01 -2.86 M151.58 55.79 C134.23 42.53, 109.45 23.96, 84.41 -2.6 M151.58 55.79 C130.06 39.53, 113.17 23.92, 84.41 -2.6 M157.22 55.39 C135.58 33.42, 111.46 12.69, 90.81 -2.34 M157.22 55.39 C139.52 40.25, 118.65 21.69, 90.81 -2.34 M163.62 55.66 C135.47 32.14, 111.34 13.02, 96.45 -2.73 M163.62 55.66 C137.62 34.61, 117.25 15, 96.45 -2.73 M170.02 55.92 C157.89 40.92, 136.32 24.13, 102.85 -2.47 M170.02 55.92 C151.18 38.56, 128.29 19.83, 102.85 -2.47 M175.66 55.52 C153.51 31.83, 125.29 12.53, 109.25 -2.21 M175.66 55.52 C151.15 32.01, 127.33 9.2, 109.25 -2.21 M180.55 54.47 C157.35 39.98, 138.5 15.98, 114.89 -2.6 M180.55 54.47 C158.1 34.89, 137.11 18.97, 114.89 -2.6 M184.68 52.77 C165.21 38.96, 148.26 23.82, 121.29 -2.34 M184.68 52.77 C167.59 39.22, 153.32 27.25, 121.29 -2.34 M187.31 49.75 C165.16 37.19, 150.12 19.34, 127.69 -2.08 M187.31 49.75 C171.09 36.26, 157.91 23.58, 127.69 -2.08 M187.67 44.76 C171.9 26.84, 150.79 10.53, 133.33 -2.48 M187.67 44.76 C168.02 30.09, 150.35 11.99, 133.33 -2.48 M187.27 39.12 C169.2 25.35, 161.43 11.67, 139.73 -2.22 M187.27 39.12 C173.41 27.49, 158.76 12.16, 139.73 -2.22 M187.63 34.13 C175.09 25.5, 161.4 12.17, 146.12 -1.95 M187.63 34.13 C175.07 22.93, 161.25 9, 146.12 -1.95 M187.24 28.49 C176.54 14.76, 163.32 5.41, 151.77 -2.35 M187.24 28.49 C174.28 19.1, 162.8 8.37, 151.77 -2.35 M187.6 23.5 C181.63 15.16, 174.88 9.07, 158.17 -2.09 M187.6 23.5 C178.43 12.68, 167.78 5.65, 158.17 -2.09 M187.96 18.51 C179.5 9.32, 173.78 10.91, 164.56 -1.83 M187.96 18.51 C185.37 15.43, 177.15 10.2, 164.56 -1.83 M187.56 12.87 C184.77 6.32, 174.6 2.55, 170.21 -2.22 M187.56 12.87 C182.29 7.49, 177.92 3.32, 170.21 -2.22 M189.43 9.19 C185.64 7.48, 182.31 4.01, 179.62 0.67 M189.43 9.19 C186.1 8.37, 184 6.36, 179.62 0.67" stroke="#b2f2bb" stroke-width="0.5" fill="none"></path><path d="M14.5 0 M14.5 0 C55.19 0.28, 101.36 -0.38, 173.5 0 M14.5 0 C76.82 -0.93, 141.83 -1.05, 173.5 0 M173.5 0 C179.29 -3.43, 186.3 5.04, 188 14.5 M173.5 0 C186.92 -2.07, 191.22 8.59, 188 14.5 M188 14.5 C186.57 25.83, 186.04 34.68, 188 43.5 M188 14.5 C188.34 21.95, 186.86 32.24, 188 43.5 M188 43.5 C189.51 52.16, 184.17 60.37, 173.5 58 M188 43.5 C186.15 57.08, 186.74 62.32, 173.5 58 M173.5 58 C115.07 59.56, 58.46 59.39, 14.5 58 M173.5 58 C120.67 58.85, 67.84 61.24, 14.5 58 M14.5 58 C4.98 57.73, 0.16 50.36, 0 43.5 M14.5 58 C0.51 61.19, -2.24 55.96, 0 43.5 M0 43.5 C1.39 34.21, -1.6 27.1, 0 14.5 M0 43.5 C-1.49 34.12, 1.05 25.89, 0 14.5 M0 14.5 C-0.17 3.27, 2.27 -3.45, 14.5 0 M0 14.5 C-3.25 1.96, 8.97 3.37, 14.5 0" stroke="#1e1e1e" stroke-width="1" fill="none"></path></g><g transform="translate(70.01667022705078 474.4) rotate(0 88.98332977294922 9.600000000000023)"><text x="88.98332977294922" y="0" font-family="Cascadia, Segoe UI Emoji" font-size="16px" fill="#1e1e1e" text-anchor="middle" style="white-space: pre;" direction="ltr" dominant-baseline="text-before-edge">87:veth11e63a3@if86</text></g><g stroke-linecap="round" transform="translate(666.5 462) rotate(0 99 29)"><path d="M5.55 2.17 C5.55 2.17, 5.55 2.17, 5.55 2.17 M5.55 2.17 C5.55 2.17, 5.55 2.17, 5.55 2.17 M2.01 12.34 C6.31 10.04, 9.34 4.52, 12.5 0.27 M2.01 12.34 C5.4 8.37, 7 4.89, 12.5 0.27 M1.74 18.74 C5.29 14.22, 14.89 5.71, 16.83 1.38 M1.74 18.74 C4.1 13.07, 9.96 12.72, 16.83 1.38 M2.14 24.38 C4.57 18.67, 14.94 11.23, 21.82 1.74 M2.14 24.38 C7.86 17.2, 15.42 10.06, 21.82 1.74 M1.88 30.78 C10.73 21.84, 19.52 11.17, 26.81 2.1 M1.88 30.78 C8.9 24.18, 14.61 13.94, 26.81 2.1 M1.62 37.18 C12.24 31, 14.5 18.91, 32.45 1.71 M1.62 37.18 C8.53 27.49, 17.92 17.58, 32.45 1.71 M2.01 42.82 C8.91 35.34, 24.5 21.74, 37.44 2.07 M2.01 42.82 C11.22 34.2, 21.83 23.19, 37.44 2.07 M2.41 48.47 C14.64 37.8, 24.4 20.68, 43.08 1.67 M2.41 48.47 C15.35 32.44, 31.45 14.36, 43.08 1.67 M4.11 52.6 C13.55 38.58, 25.29 24.91, 48.07 2.03 M4.11 52.6 C22.91 34.97, 35.3 14.95, 48.07 2.03 M5.82 56.73 C19.7 41.1, 38.09 26.34, 53.71 1.64 M5.82 56.73 C16.55 44.07, 27.71 29.68, 53.71 1.64 M9.49 58.6 C18.84 45.83, 29.89 30.18, 58.7 2 M9.49 58.6 C25.19 39.71, 40.36 19.36, 58.7 2 M15.14 58.21 C33.27 38.89, 47.63 17.65, 63.69 2.36 M15.14 58.21 C30.71 37.8, 44.79 20.14, 63.69 2.36 M20.12 58.57 C28.98 51.02, 39.35 36.72, 69.33 1.97 M20.12 58.57 C35.63 41.9, 51.1 19.5, 69.33 1.97 M25.77 58.17 C39.33 42.54, 55.94 20.71, 74.32 2.33 M25.77 58.17 C45.93 37.71, 63.04 14.44, 74.32 2.33 M30.75 58.53 C36.56 48.05, 49.63 35.92, 79.96 1.93 M30.75 58.53 C47.58 37.81, 67.26 16.35, 79.96 1.93 M35.74 58.89 C48.57 44.25, 62.7 23.77, 84.95 2.29 M35.74 58.89 C53.42 39.55, 71.78 17.88, 84.95 2.29 M41.38 58.5 C59.97 36.3, 81.89 16.97, 90.59 1.9 M41.38 58.5 C54.95 44.36, 65.9 32.14, 90.59 1.9 M46.37 58.86 C59.74 38.72, 77.1 20.18, 95.58 2.26 M46.37 58.86 C59.96 41.18, 77.75 27.13, 95.58 2.26 M52.01 58.47 C73.1 40.57, 88.96 13.62, 101.22 1.86 M52.01 58.47 C62.51 45.72, 74.09 34.38, 101.22 1.86 M57 58.83 C65.35 49.63, 78.17 34.29, 106.21 2.22 M57 58.83 C69.52 41.5, 83.77 28.87, 106.21 2.22 M62.64 58.43 C78.57 41.33, 96.48 15.91, 111.19 2.58 M62.64 58.43 C77.89 38.91, 96.2 22.03, 111.19 2.58 M67.63 58.79 C77.86 43.49, 92.47 25.29, 116.84 2.19 M67.63 58.79 C84.64 39.07, 100 21.2, 116.84 2.19 M73.27 58.4 C94.96 36.85, 110.53 11.38, 121.82 2.55 M73.27 58.4 C87.12 42.66, 99.55 26.28, 121.82 2.55 M78.26 58.76 C95.05 35.52, 121.48 15.12, 127.47 2.15 M78.26 58.76 C90.15 43.32, 103.09 30.31, 127.47 2.15 M83.25 59.12 C91.57 45.46, 100.54 37.67, 132.45 2.51 M83.25 59.12 C100.98 38.27, 117.57 18.61, 132.45 2.51 M88.89 58.72 C104.02 41.65, 112.39 31.47, 138.1 2.12 M88.89 58.72 C102.47 47.34, 110.02 34.86, 138.1 2.12 M93.88 59.08 C106.25 39.22, 123 22.1, 143.08 2.48 M93.88 59.08 C106.08 43.03, 121.37 29.4, 143.08 2.48 M99.52 58.69 C111.05 44.55, 128.26 22.91, 148.73 2.08 M99.52 58.69 C118.13 35.68, 139.86 14.87, 148.73 2.08 M104.51 59.05 C118.65 42.22, 128.51 30.63, 153.71 2.44 M104.51 59.05 C123.8 37.16, 143.3 12.42, 153.71 2.44 M110.15 58.65 C120.43 44.37, 134.69 31.34, 158.7 2.8 M110.15 58.65 C122.16 43.32, 135.61 30.44, 158.7 2.8 M115.14 59.01 C134.75 39.5, 144.85 25.73, 164.34 2.41 M115.14 59.01 C126.06 45.37, 138.22 32.12, 164.34 2.41 M120.78 58.62 C128.59 50.2, 142.93 35.8, 169.33 2.77 M120.78 58.62 C133.37 39.59, 149.68 24.71, 169.33 2.77 M125.77 58.98 C143.75 40.16, 154.19 26.81, 174.97 2.38 M125.77 58.98 C134.24 44.44, 146.31 34.72, 174.97 2.38 M130.76 59.34 C148.16 43.53, 162.23 29.94, 179.96 2.74 M130.76 59.34 C148.08 39.01, 167.4 15.74, 179.96 2.74 M136.4 58.94 C153.73 41.3, 165.06 23.18, 185.6 2.34 M136.4 58.94 C152.54 39.58, 170.41 22.24, 185.6 2.34 M141.39 59.3 C151.31 39.11, 168.88 27.34, 191.25 1.95 M141.39 59.3 C158.69 39.79, 175.81 19.47, 191.25 1.95 M147.03 58.91 C158.14 41.84, 169.85 32.64, 194.92 3.82 M147.03 58.91 C164.41 37.22, 182.73 16.79, 194.92 3.82 M152.02 59.27 C160.42 49.39, 172.11 39.26, 196.63 7.95 M152.02 59.27 C164.93 41.98, 180.27 24.63, 196.63 7.95 M157.66 58.88 C168.31 39.87, 182.95 27.05, 198.33 12.08 M157.66 58.88 C169.47 47.59, 175.27 36.91, 198.33 12.08 M162.65 59.24 C177.11 43.8, 189.21 26.86, 198.73 17.73 M162.65 59.24 C174.97 44.96, 189.31 29.51, 198.73 17.73 M167.63 59.6 C180.15 45.98, 188.38 39.71, 198.47 24.12 M167.63 59.6 C177.46 46.39, 186.73 37.26, 198.47 24.12 M173.28 59.2 C180.81 52.22, 188.1 43.97, 198.21 30.52 M173.28 59.2 C181.11 51.09, 189.5 41.87, 198.21 30.52 M178.26 59.56 C183.29 52.33, 185.23 45.82, 197.95 36.92 M178.26 59.56 C184.19 52.96, 190.27 45.24, 197.95 36.92 M184.56 58.41 C189.61 53.17, 188.34 51.38, 198.34 42.56 M184.56 58.41 C187.89 51.12, 196.37 48.05, 198.34 42.56 M190.86 57.26 C193.25 55.82, 192.01 52.85, 197.42 49.72 M190.86 57.26 C193.37 55.08, 193.59 53.14, 197.42 49.72 M3.32 54.11 C3.32 54.11, 3.32 54.11, 3.32 54.11 M3.32 54.11 C3.32 54.11, 3.32 54.11, 3.32 54.11 M10.47 55.02 C8.9 51.2, 5.06 49.06, 0.66 46.5 M10.47 55.02 C8.73 53.87, 6.05 50.25, 0.66 46.5 M16.11 54.63 C14.66 54.26, 5.61 45.67, 0.26 40.85 M16.11 54.63 C11.52 51.63, 8.33 48, 0.26 40.85 M22.51 54.89 C15.65 46.68, 6.82 38.21, 0.62 35.87 M22.51 54.89 C19.37 52.53, 12.31 48.03, 0.62 35.87 M28.91 55.15 C15.31 43.74, 12.08 38.42, 0.98 30.88 M28.91 55.15 C22.17 51.81, 17.7 46.7, 0.98 30.88 M34.55 54.76 C24.58 44.17, 12.23 31.94, 0.59 25.24 M34.55 54.76 C22.93 42.8, 7.21 30.69, 0.59 25.24 M40.95 55.02 C28.97 41.34, 5.93 25.17, 0.95 20.25 M40.95 55.02 C29.36 42.28, 13.17 29.97, 0.95 20.25 M47.35 55.28 C28.11 44.7, 16.53 27.34, 0.55 14.61 M47.35 55.28 C34.14 44.22, 24.09 34.93, 0.55 14.61 M52.99 54.89 C42.58 46.47, 28.99 36.6, 0.91 9.62 M52.99 54.89 C35.42 38.18, 15.37 22.96, 0.91 9.62 M59.39 55.15 C44.5 45.56, 32.69 34.7, 3.54 6.6 M59.39 55.15 C41 37.81, 20.72 21.78, 3.54 6.6 M65.03 54.75 C45.65 39.74, 23.45 23.1, 5.41 2.92 M65.03 54.75 C45.78 39.81, 29.3 23.18, 5.41 2.92 M71.43 55.01 C55.01 44.36, 43.87 30.74, 8.03 -0.09 M71.43 55.01 C50.79 38.03, 26.42 19.3, 8.03 -0.09 M77.83 55.28 C58.21 33.39, 30.97 17.5, 12.92 -1.15 M77.83 55.28 C52.69 32.34, 28.4 11.72, 12.92 -1.15 M83.47 54.88 C64.93 41.82, 51.19 31.7, 17.05 -2.85 M83.47 54.88 C70.57 43.71, 53.85 27.32, 17.05 -2.85 M89.87 55.14 C71.49 41.32, 55.04 27.98, 23.45 -2.59 M89.87 55.14 C69.98 39.46, 52.36 22.13, 23.45 -2.59 M96.26 55.4 C76.98 41.81, 55.64 23.89, 29.1 -2.98 M96.26 55.4 C73.04 33.96, 48.4 17.85, 29.1 -2.98 M101.91 55.01 C74.92 29.92, 54.59 10.64, 35.49 -2.72 M101.91 55.01 C84.14 42.75, 68.51 27.34, 35.49 -2.72 M108.31 55.27 C96.63 44.48, 84.2 30.84, 41.89 -2.46 M108.31 55.27 C87.05 39.14, 67.05 22.06, 41.89 -2.46 M114.7 55.53 C102.41 37.34, 85.31 27.58, 47.53 -2.86 M114.7 55.53 C93.93 38.3, 72.93 19.73, 47.53 -2.86 M120.35 55.14 C94.08 34.54, 66.42 8.3, 53.93 -2.6 M120.35 55.14 C104.18 42.35, 86.78 27.27, 53.93 -2.6 M126.74 55.4 C105.83 43.17, 90.46 22.77, 59.57 -2.99 M126.74 55.4 C112.2 42.89, 100.74 28.75, 59.57 -2.99 M133.14 55.66 C119.05 43.89, 95.53 30.17, 65.97 -2.73 M133.14 55.66 C114.36 37.43, 94.66 20.96, 65.97 -2.73 M138.78 55.27 C117.05 38.11, 99.84 21.64, 72.37 -2.47 M138.78 55.27 C118.6 35.52, 96.88 16.55, 72.37 -2.47 M145.18 55.53 C126.23 46.81, 114.02 30.12, 78.01 -2.86 M145.18 55.53 C130.12 40.74, 119.77 31.53, 78.01 -2.86 M151.58 55.79 C135.03 43.76, 123.49 33.68, 84.41 -2.6 M151.58 55.79 C130.7 36.82, 106.08 16.92, 84.41 -2.6 M157.22 55.39 C135.09 41.77, 116.28 17.35, 90.81 -2.34 M157.22 55.39 C135.25 34.7, 116.85 18.97, 90.81 -2.34 M163.62 55.66 C150.46 43.91, 133.96 31.93, 96.45 -2.73 M163.62 55.66 C138.91 33.55, 116.14 13.5, 96.45 -2.73 M170.02 55.92 C148.84 40.14, 127.56 15.9, 102.85 -2.47 M170.02 55.92 C154.62 39.36, 138.93 25.76, 102.85 -2.47 M175.66 55.52 C152.75 40.16, 137.03 20.12, 109.25 -2.21 M175.66 55.52 C160.6 42.08, 140.82 26.21, 109.25 -2.21 M184.32 57.75 C164.6 36.29, 139.26 18.29, 114.89 -2.6 M184.32 57.75 C156.83 34.61, 132.65 12.8, 114.89 -2.6 M188.46 56.05 C166.24 35.95, 145.1 18.77, 121.29 -2.34 M188.46 56.05 C170.96 43.83, 155.95 26.02, 121.29 -2.34 M193.35 55 C169.58 35.51, 145.93 13.17, 127.69 -2.08 M193.35 55 C168.48 33.47, 147.62 14.28, 127.69 -2.08 M195.97 51.98 C180.99 38.42, 160.6 24.05, 133.33 -2.48 M195.97 51.98 C172.86 32.99, 155.49 14.29, 133.33 -2.48 M197.84 48.3 C180.23 38.34, 165.5 20.98, 139.73 -2.22 M197.84 48.3 C186.15 37.44, 174.47 29.85, 139.73 -2.22 M198.2 43.31 C181.83 29.81, 172.68 14.11, 146.12 -1.95 M198.2 43.31 C182.81 29.86, 165.79 18.02, 146.12 -1.95 M198.56 38.33 C187.61 29.15, 176.36 15.5, 151.77 -2.35 M198.56 38.33 C187.4 26.72, 175.38 20.28, 151.77 -2.35 M198.17 32.68 C179.31 16.46, 168.35 5.49, 158.17 -2.09 M198.17 32.68 C186.1 22.04, 175.78 14.29, 158.17 -2.09 M198.53 27.7 C193.13 20.36, 183.82 15.71, 164.56 -1.83 M198.53 27.7 C186.91 17.23, 178.46 9.3, 164.56 -1.83 M198.89 22.71 C193.04 17.96, 183.71 6.71, 170.21 -2.22 M198.89 22.71 C188.84 16.18, 177.22 6.61, 170.21 -2.22 M198.49 17.07 C187.68 12.95, 178.85 -0.4, 176.6 -1.96 M198.49 17.07 C190.94 9.5, 184.87 5.63, 176.6 -1.96 M198.85 12.08 C192.19 7.55, 188.22 2.57, 182.25 -2.35 M198.85 12.08 C195.54 7.42, 188.8 3.46, 182.25 -2.35" stroke="#b2f2bb" stroke-width="0.5" fill="none"></path><path d="M14.5 0 M14.5 0 C48.16 1.37, 78.94 2.07, 183.5 0 M14.5 0 C78.49 1.5, 146.53 2.1, 183.5 0 M183.5 0 C194.69 3.01, 197.14 6.87, 198 14.5 M183.5 0 C190.89 -0.37, 201.88 8.87, 198 14.5 M198 14.5 C201.25 17.98, 194.98 32.54, 198 43.5 M198 14.5 C200.42 25.44, 197.88 33.85, 198 43.5 M198 43.5 C196.03 54.73, 195.48 60.9, 183.5 58 M198 43.5 C196.6 49.84, 194.03 55.92, 183.5 58 M183.5 58 C121.96 53.97, 58.3 56.66, 14.5 58 M183.5 58 C137.87 55.3, 93.09 54.57, 14.5 58 M14.5 58 C8.81 58.56, 1.41 50.7, 0 43.5 M14.5 58 C5.38 54.88, -3.17 52.74, 0 43.5 M0 43.5 C4.22 30.52, -2.36 24.15, 0 14.5 M0 43.5 C-1.62 33.93, -1.22 24, 0 14.5 M0 14.5 C-0.42 4.82, 1.8 3.64, 14.5 0 M0 14.5 C-3.59 1.09, 1.08 -4.25, 14.5 0" stroke="#1e1e1e" stroke-width="1" fill="none"></path></g><g transform="translate(676.5166702270508 481.4) rotate(0 88.98332977294922 9.600000000000023)"><text x="88.98332977294922" y="0" font-family="Cascadia, Segoe UI Emoji" font-size="16px" fill="#1e1e1e" text-anchor="middle" style="white-space: pre;" direction="ltr" dominant-baseline="text-before-edge">89:veth79bed91@if88</text></g><g stroke-linecap="round" transform="translate(554 237) rotate(0 68 30)"><path d="M3.99 3.47 C3.99 3.47, 3.99 3.47, 3.99 3.47 M3.99 3.47 C3.99 3.47, 3.99 3.47, 3.99 3.47 M1.11 12.89 C0.61 11.02, 6.84 6.4, 10.95 1.57 M1.11 12.89 C4.48 9.51, 8.23 3.87, 10.95 1.57 M1.5 18.53 C7.57 11.88, 9.92 7.94, 16.59 1.17 M1.5 18.53 C8.45 12.8, 12.06 4.22, 16.59 1.17 M1.24 24.93 C4.69 22.98, 10.76 11.51, 21.58 1.53 M1.24 24.93 C7.9 18.37, 13.6 12.23, 21.58 1.53 M1.63 30.57 C11.63 21.75, 12.87 18.21, 27.22 1.14 M1.63 30.57 C8.97 22.34, 18.34 13.81, 27.22 1.14 M1.37 36.97 C16.27 22.11, 21.37 9.15, 32.21 1.5 M1.37 36.97 C8.54 28.5, 16.25 17.07, 32.21 1.5 M1.11 43.37 C6.03 35.68, 17.51 22.22, 37.85 1.1 M1.11 43.37 C11.7 34.32, 20.63 23.34, 37.85 1.1 M1.51 49.01 C14.2 36.67, 24.71 20.44, 42.84 1.46 M1.51 49.01 C11.16 35.67, 21.14 26.4, 42.84 1.46 M3.21 53.14 C19.7 31.64, 34.58 13.85, 47.83 1.82 M3.21 53.14 C13.79 43.23, 23.06 28.94, 47.83 1.82 M4.92 57.28 C15.83 46.74, 26.43 27.87, 53.47 1.43 M4.92 57.28 C24.32 39.14, 38.81 17.32, 53.47 1.43 M8.59 59.15 C17.89 45.25, 34.48 32.12, 58.46 1.79 M8.59 59.15 C22.03 47.75, 33.09 33.51, 58.46 1.79 M13.58 59.51 C27.23 38.06, 43.32 19.27, 64.1 1.39 M13.58 59.51 C25.62 44.98, 40.63 29.48, 64.1 1.39 M19.22 59.11 C33.49 43.41, 43.68 30.92, 69.09 1.75 M19.22 59.11 C30.98 42.86, 45.72 28.31, 69.09 1.75 M24.21 59.47 C36.15 41.11, 59.07 21.77, 74.07 2.11 M24.21 59.47 C43.26 38.38, 63.44 12.74, 74.07 2.11 M29.85 59.08 C41.74 42.03, 53.11 33.97, 79.72 1.72 M29.85 59.08 C41.29 45.83, 56.64 28.39, 79.72 1.72 M34.84 59.44 C45.88 41.56, 61.23 34.57, 84.7 2.08 M34.84 59.44 C51.74 40.24, 65.54 20.14, 84.7 2.08 M39.83 59.8 C59.33 34.59, 76.63 18.23, 90.35 1.69 M39.83 59.8 C53.3 44.7, 65.82 30.74, 90.35 1.69 M45.47 59.4 C56.21 48.69, 70.14 27.86, 95.33 2.05 M45.47 59.4 C56.18 47.35, 63.84 36.26, 95.33 2.05 M50.46 59.76 C62.02 44.35, 78.43 28.37, 100.98 1.65 M50.46 59.76 C64.86 45.44, 75 30.42, 100.98 1.65 M56.1 59.37 C66.67 44.36, 80.7 27.3, 105.96 2.01 M56.1 59.37 C71.52 42.88, 85.46 22.82, 105.96 2.01 M61.09 59.73 C77.23 43.96, 94.07 24.47, 110.95 2.37 M61.09 59.73 C71.8 44.87, 85.99 34.77, 110.95 2.37 M66.73 59.33 C84.99 41, 93.47 27.08, 116.59 1.98 M66.73 59.33 C83.2 41.65, 97.32 24.38, 116.59 1.98 M71.72 59.69 C88.38 36.91, 109.2 22.94, 121.58 2.34 M71.72 59.69 C82.99 46.29, 94.66 32.9, 121.58 2.34 M76.71 60.05 C90.4 44.7, 105.35 30.43, 127.88 1.19 M76.71 60.05 C95.8 38.32, 114.16 16.84, 127.88 1.19 M82.35 59.66 C99.08 37.41, 116.04 16.52, 131.55 3.06 M82.35 59.66 C97.11 46.67, 107.8 30.18, 131.55 3.06 M87.34 60.02 C102.75 41.11, 127.12 21.19, 134.57 5.68 M87.34 60.02 C101.73 46.51, 111.23 29.67, 134.57 5.68 M92.98 59.63 C98.41 50.69, 114.01 39.82, 136.28 9.81 M92.98 59.63 C106.4 44.03, 121.21 30.11, 136.28 9.81 M97.97 59.99 C110.43 51.72, 119.94 33.42, 137.99 13.95 M97.97 59.99 C109.74 44.56, 122.9 34.12, 137.99 13.95 M103.61 59.59 C116.79 42.31, 127.92 35.26, 138.38 19.59 M103.61 59.59 C111.62 51.02, 122.39 40.19, 138.38 19.59 M108.6 59.95 C115.43 47.9, 131.39 36.39, 138.12 25.99 M108.6 59.95 C119.36 47.76, 132.16 35.76, 138.12 25.99 M113.58 60.31 C124.85 48.66, 125.37 43.41, 137.86 32.39 M113.58 60.31 C118.5 53.39, 128.99 45.72, 137.86 32.39 M119.23 59.92 C127.68 54.46, 129.9 40.89, 137.6 38.78 M119.23 59.92 C121.33 54.25, 126.83 48.97, 137.6 38.78 M122.9 61.79 C130.01 58.49, 138.39 49.72, 137.99 44.43 M122.9 61.79 C128.72 56.27, 129.45 54.37, 137.99 44.43 M3.95 56.42 C3.95 56.42, 3.95 56.42, 3.95 56.42 M3.95 56.42 C3.95 56.42, 3.95 56.42, 3.95 56.42 M10.35 56.69 C9.64 51.95, 6.85 50.21, 0.54 48.16 M10.35 56.69 C5.73 54.37, 1.24 49.49, 0.54 48.16 M16.75 56.95 C8.23 53.69, 8.64 49.47, 0.9 43.17 M16.75 56.95 C13.47 51.86, 8.36 50.16, 0.9 43.17 M22.39 56.55 C14.11 53.58, 12.71 46.06, 0.5 37.53 M22.39 56.55 C15.45 49.05, 6.46 44.13, 0.5 37.53 M28.79 56.81 C22.31 49.94, 15.51 43.77, 0.86 32.54 M28.79 56.81 C19.48 48.94, 10.27 39.62, 0.86 32.54 M35.19 57.08 C20.2 47.33, 9.41 34.63, 0.47 26.9 M35.19 57.08 C23.49 47.62, 10.26 37.13, 0.47 26.9 M41.58 57.34 C27.87 44.32, 13.31 32.92, 0.83 21.91 M41.58 57.34 C35.37 50.53, 23.43 42.53, 0.83 21.91 M47.23 56.94 C30.5 44.78, 20.9 29.85, 0.43 16.27 M47.23 56.94 C32.99 44.15, 22.31 35.93, 0.43 16.27 M53.62 57.2 C31.81 42.32, 14.4 21.99, 0.79 11.28 M53.62 57.2 C36.27 41.45, 19.28 26.95, 0.79 11.28 M60.02 57.47 C38.29 39.92, 18.33 21.9, 2.66 7.61 M60.02 57.47 C39.24 40.47, 16.6 20.39, 2.66 7.61 M65.66 57.07 C56.37 44.49, 39.7 32.51, 3.78 3.27 M65.66 57.07 C50.84 44.11, 39.57 32.43, 3.78 3.27 M72.06 57.33 C42.73 37.32, 22.57 17.05, 8.67 2.22 M72.06 57.33 C50.89 39.21, 31.34 20.34, 8.67 2.22 M78.46 57.59 C55.62 35.44, 35.23 23.58, 12.8 0.52 M78.46 57.59 C63.52 43.96, 50.08 32.81, 12.8 0.52 M84.1 57.2 C66.19 38.03, 42.17 19.26, 16.18 -1.85 M84.1 57.2 C60.14 37.11, 39.36 17.01, 16.18 -1.85 M90.5 57.46 C66.47 35.2, 48.87 14.34, 22.58 -1.58 M90.5 57.46 C65.33 35.42, 42.2 14.38, 22.58 -1.58 M96.9 57.72 C72.02 38.24, 55.04 21.81, 28.98 -1.32 M96.9 57.72 C73.76 36.33, 49.19 17.27, 28.98 -1.32 M102.54 57.33 C83.39 39.27, 69.08 21.94, 34.62 -1.72 M102.54 57.33 C85.83 43, 66.29 28.11, 34.62 -1.72 M108.94 57.59 C86.13 39.77, 71.4 19.25, 41.02 -1.46 M108.94 57.59 C80.38 33.94, 53.98 9.23, 41.02 -1.46 M115.34 57.85 C97.15 45.07, 90.93 31.73, 47.41 -1.19 M115.34 57.85 C97.49 43.21, 78.06 27.76, 47.41 -1.19 M122.49 58.77 C100.84 37.49, 80.18 17.31, 53.06 -1.59 M122.49 58.77 C96.77 33.54, 68.75 9.92, 53.06 -1.59 M127.38 57.72 C108.47 43.62, 93.42 33.15, 59.45 -1.33 M127.38 57.72 C105.43 37.14, 80.3 16.48, 59.45 -1.33 M131.51 56.01 C115.78 39.51, 101.15 27.68, 65.85 -1.07 M131.51 56.01 C105.62 34.43, 82.05 14.58, 65.85 -1.07 M134.14 52.99 C119.86 39.63, 108.01 25.87, 71.5 -1.46 M134.14 52.99 C112.41 33.98, 92.57 17.64, 71.5 -1.46 M136.76 49.97 C118.69 29.7, 97.62 17.21, 77.89 -1.2 M136.76 49.97 C121.86 37.34, 103.25 21.77, 77.89 -1.2 M136.37 44.33 C121.37 31.12, 106.02 17.42, 84.29 -0.94 M136.37 44.33 C120.12 33.03, 107.92 19.4, 84.29 -0.94 M136.73 39.34 C121.76 20.79, 100.5 8.42, 89.93 -1.33 M136.73 39.34 C120.75 26.06, 101.98 9.54, 89.93 -1.33 M137.09 34.36 C124.72 24.52, 113.31 17.69, 96.33 -1.07 M137.09 34.36 C123.8 23.39, 107.13 8.51, 96.33 -1.07 M136.69 28.71 C123.8 20.34, 117.78 7.71, 102.73 -0.81 M136.69 28.71 C123.03 17.03, 114.05 7.38, 102.73 -0.81 M137.05 23.73 C129.42 15.88, 120.28 10.21, 109.13 -0.55 M137.05 23.73 C128.11 16.36, 120.11 8.97, 109.13 -0.55 M137.41 18.74 C129.4 11.13, 122.54 8.34, 114.77 -0.94 M137.41 18.74 C128.05 11.08, 120.41 4.37, 114.77 -0.94 M137.02 13.1 C137.35 10.44, 133.55 4.01, 121.17 -0.68 M137.02 13.1 C132.72 9.95, 129.47 5.41, 121.17 -0.68" stroke="#b2f2bb" stroke-width="0.5" fill="none"></path><path d="M15 0 M15 0 C35.91 -2.25, 66.64 1.19, 121 0 M15 0 C42.03 0.21, 68.89 -1.78, 121 0 M121 0 C127.4 -1.5, 133.32 5.02, 136 15 M121 0 C134.36 3.28, 139.6 7.68, 136 15 M136 15 C131.85 29.01, 135.09 40.39, 136 45 M136 15 C138.22 19.78, 135.19 29.32, 136 45 M136 45 C133 52.03, 131.06 62.77, 121 60 M136 45 C132.75 53.42, 127.49 59.64, 121 60 M121 60 C88.01 57.04, 54.15 58.74, 15 60 M121 60 C87.52 62.46, 54.69 59.68, 15 60 M15 60 C1.82 56.02, -0.62 51.6, 0 45 M15 60 C4.73 58.28, -3.86 54.08, 0 45 M0 45 C-2.43 34.61, 2.76 24.2, 0 15 M0 45 C0.57 33.87, -0.61 26.4, 0 15 M0 15 C3.51 3.25, 3.9 3.24, 15 0 M0 15 C3.92 0.46, 1.71 3.65, 15 0" stroke="#1e1e1e" stroke-width="1" fill="none"></path></g><g transform="translate(565.7999992370605 247.8) rotate(0 56.20000076293945 19.19999999999999)"><text x="56.20000076293945" y="0" font-family="Cascadia, Segoe UI Emoji" font-size="16px" fill="#1e1e1e" text-anchor="middle" style="white-space: pre;" direction="ltr" dominant-baseline="text-before-edge">172.11.0.3</text><text x="56.20000076293945" y="19.2" font-family="Cascadia, Segoe UI Emoji" font-size="16px" fill="#1e1e1e" text-anchor="middle" style="white-space: pre;" direction="ltr" dominant-baseline="text-before-edge">90:eth1@if91</text></g><g stroke-linecap="round" transform="translate(259.5 458) rotate(0 105 29)"><path d="M5.55 2.17 C5.55 2.17, 5.55 2.17, 5.55 2.17 M5.55 2.17 C5.55 2.17, 5.55 2.17, 5.55 2.17 M2.01 12.34 C3.88 5.27, 8.45 1.98, 12.5 0.27 M2.01 12.34 C5.46 9.56, 8.32 4.55, 12.5 0.27 M1.74 18.74 C7.19 10.21, 15.55 5.19, 16.83 1.38 M1.74 18.74 C4.15 15.46, 7.84 10.26, 16.83 1.38 M2.14 24.38 C6.68 22.48, 10.15 16.76, 21.82 1.74 M2.14 24.38 C10.73 16.98, 14.71 6.65, 21.82 1.74 M1.88 30.78 C5.57 22.32, 18.01 12.64, 26.81 2.1 M1.88 30.78 C9.48 25.2, 12.72 15.26, 26.81 2.1 M1.62 37.18 C5.88 30.37, 20.82 18.3, 32.45 1.71 M1.62 37.18 C12.39 23.13, 22.05 11.85, 32.45 1.71 M2.01 42.82 C6.27 32.01, 19.35 23.54, 37.44 2.07 M2.01 42.82 C11.55 31.24, 22.41 18.5, 37.44 2.07 M2.41 48.47 C21.31 31.71, 30.1 9.39, 43.08 1.67 M2.41 48.47 C14.69 31.87, 27.93 18.02, 43.08 1.67 M4.11 52.6 C17.6 38.79, 30.51 19.25, 48.07 2.03 M4.11 52.6 C14.41 39.27, 24.01 26.53, 48.07 2.03 M5.82 56.73 C18.14 40.94, 28.42 30.75, 53.71 1.64 M5.82 56.73 C23.02 37.16, 36.68 18.65, 53.71 1.64 M9.49 58.6 C22.16 48.34, 31.08 27.88, 58.7 2 M9.49 58.6 C20.74 45.79, 36.75 29.92, 58.7 2 M15.14 58.21 C24.47 41.92, 38.19 31.38, 64.34 1.61 M15.14 58.21 C27.67 43.05, 40.58 28.39, 64.34 1.61 M20.12 58.57 C32.4 44.24, 53.53 20.67, 69.33 1.97 M20.12 58.57 C37.54 38.74, 55 16.15, 69.33 1.97 M25.77 58.17 C35.81 48.18, 47.03 34.65, 74.32 2.33 M25.77 58.17 C38.7 42.8, 51.94 27.92, 74.32 2.33 M30.75 58.53 C43.99 39.19, 58.71 23.93, 79.96 1.93 M30.75 58.53 C43.23 44.72, 52.14 34.44, 79.96 1.93 M35.74 58.89 C46.76 51.97, 56.95 35.1, 84.95 2.29 M35.74 58.89 C48.61 42.74, 58.15 28.84, 84.95 2.29 M41.38 58.5 C62.33 40.38, 81.48 15.45, 90.59 1.9 M41.38 58.5 C52.25 46.82, 64.68 34.24, 90.59 1.9 M46.37 58.86 C63.05 44.56, 69.51 28.91, 95.58 2.26 M46.37 58.86 C63.75 38.44, 86.11 15.82, 95.58 2.26 M52.01 58.47 C63.34 41.69, 84.86 21.74, 101.22 1.86 M52.01 58.47 C70.77 40.4, 87.22 21.72, 101.22 1.86 M57 58.83 C75.94 40.03, 95.26 20.61, 106.21 2.22 M57 58.83 C67.32 49.43, 77.36 36.92, 106.21 2.22 M62.64 58.43 C76.48 34.67, 96.93 18.98, 111.19 2.58 M62.64 58.43 C80.03 42.49, 96.43 23.82, 111.19 2.58 M67.63 58.79 C81.37 42.07, 87.19 28.42, 116.84 2.19 M67.63 58.79 C84.61 38.62, 102.01 20.59, 116.84 2.19 M73.27 58.4 C90.94 44.68, 103.84 22.44, 121.82 2.55 M73.27 58.4 C88.52 38.44, 106.56 22.26, 121.82 2.55 M78.26 58.76 C90.06 40.3, 107.29 29.43, 127.47 2.15 M78.26 58.76 C87.81 45.43, 100.58 34.04, 127.47 2.15 M83.25 59.12 C91.06 48.64, 102.39 37.95, 132.45 2.51 M83.25 59.12 C102.49 36.83, 118.27 18.01, 132.45 2.51 M88.89 58.72 C106.03 41.74, 122.94 21.29, 138.1 2.12 M88.89 58.72 C100.46 45.19, 115.55 29.1, 138.1 2.12 M93.88 59.08 C113.96 40.84, 130.88 17.84, 143.08 2.48 M93.88 59.08 C109.58 37.59, 129.33 17.03, 143.08 2.48 M99.52 58.69 C113.25 44.87, 128.31 27.4, 148.73 2.08 M99.52 58.69 C112.23 43.73, 124.62 28.48, 148.73 2.08 M104.51 59.05 C121.8 37.92, 136.08 23.13, 153.71 2.44 M104.51 59.05 C120.82 40.92, 136.47 25, 153.71 2.44 M110.15 58.65 C120.19 48.25, 133.39 29.3, 158.7 2.8 M110.15 58.65 C121.62 43.71, 131.56 33.18, 158.7 2.8 M115.14 59.01 C129.72 42.68, 142.2 23.36, 164.34 2.41 M115.14 59.01 C124.31 48.09, 139.29 34.8, 164.34 2.41 M120.78 58.62 C141.42 40.14, 155.32 20.72, 169.33 2.77 M120.78 58.62 C133.76 41.1, 149.44 24.82, 169.33 2.77 M125.77 58.98 C142.04 40.64, 159.03 23.83, 174.97 2.38 M125.77 58.98 C139.63 43.33, 151.79 26.43, 174.97 2.38 M130.76 59.34 C137.92 46.26, 147.92 31.34, 179.96 2.74 M130.76 59.34 C147.31 41.35, 164.67 21.86, 179.96 2.74 M136.4 58.94 C153.28 41.34, 171.9 21.24, 185.6 2.34 M136.4 58.94 C155.47 37.64, 173.18 15.83, 185.6 2.34 M141.39 59.3 C147.69 47.57, 165.31 32.6, 190.59 2.7 M141.39 59.3 C158.25 38.25, 178.64 15.56, 190.59 2.7 M147.03 58.91 C160.49 43.76, 174.84 27.51, 196.23 2.31 M147.03 58.91 C161.48 45.62, 174.97 29.4, 196.23 2.31 M152.02 59.27 C164.73 45.46, 178.85 26.25, 202.53 1.16 M152.02 59.27 C165.73 43.86, 178.61 30.27, 202.53 1.16 M157.66 58.88 C178.04 40.72, 199.7 17.72, 205.55 3.78 M157.66 58.88 C165.78 45.81, 178.26 33.67, 205.55 3.78 M162.65 59.24 C174.76 46.82, 187.87 24.79, 209.23 5.65 M162.65 59.24 C176.98 42.72, 189.77 29.81, 209.23 5.65 M168.29 58.84 C182.44 45.12, 192.65 31.36, 209.62 11.29 M168.29 58.84 C179.2 45.2, 189.21 31.6, 209.62 11.29 M173.28 59.2 C185.36 47.77, 197.57 27.15, 209.36 17.69 M173.28 59.2 C184.61 46.68, 195.7 35.41, 209.36 17.69 M178.26 59.56 C184.85 51.72, 192.14 43.98, 209.75 23.33 M178.26 59.56 C186.36 48.64, 194.06 38.68, 209.75 23.33 M183.91 59.17 C190.84 45.53, 202.24 40.85, 209.49 29.73 M183.91 59.17 C189.38 50.94, 195.92 42.72, 209.49 29.73 M188.89 59.53 C193.63 55.54, 203.22 46.67, 209.23 36.13 M188.89 59.53 C196.41 50.75, 204.86 40.99, 209.23 36.13 M195.19 58.38 C199.41 53.01, 202.35 47.19, 208.97 42.53 M195.19 58.38 C199.05 53.74, 204.85 50.16, 208.97 42.53 M202.15 56.47 C202.58 55.46, 207.14 52.27, 209.36 48.17 M202.15 56.47 C205.01 52.75, 206.56 50.72, 209.36 48.17 M3.32 54.11 C3.32 54.11, 3.32 54.11, 3.32 54.11 M3.32 54.11 C3.32 54.11, 3.32 54.11, 3.32 54.11 M10.47 55.02 C5.36 51.64, 3.59 50.36, 0.66 46.5 M10.47 55.02 C7.65 51.62, 3.04 48.9, 0.66 46.5 M16.11 54.63 C9.67 47.94, 6.47 46.28, 0.26 40.85 M16.11 54.63 C12.44 49.13, 5.53 47.55, 0.26 40.85 M22.51 54.89 C15.07 50.47, 3.27 42.16, 0.62 35.87 M22.51 54.89 C16.3 50.98, 11.61 43.75, 0.62 35.87 M28.91 55.15 C16.91 44.29, 8.09 39.31, 0.98 30.88 M28.91 55.15 C18.67 46.1, 7.72 36, 0.98 30.88 M34.55 54.76 C23.55 45.4, 18.19 41.82, 0.59 25.24 M34.55 54.76 C22.4 43, 10.88 32.45, 0.59 25.24 M40.95 55.02 C32.26 51.65, 20.46 37.82, 0.95 20.25 M40.95 55.02 C27.7 42.54, 12.84 30.27, 0.95 20.25 M46.59 54.62 C34.09 46.93, 27.26 34.22, 0.55 14.61 M46.59 54.62 C34.28 42.88, 19.86 31.09, 0.55 14.61 M52.99 54.89 C42.85 45.86, 29.38 33.45, 0.91 9.62 M52.99 54.89 C32.56 40.73, 15.4 24.68, 0.91 9.62 M59.39 55.15 C50.77 42.6, 32.93 38.75, 3.54 6.6 M59.39 55.15 C48.92 42.82, 34.28 31.78, 3.54 6.6 M65.03 54.75 C44.14 40.72, 28.8 25.33, 5.41 2.92 M65.03 54.75 C47.84 36.98, 28.6 20.59, 5.41 2.92 M71.43 55.01 C58.73 39.09, 46.15 29.73, 8.03 -0.09 M71.43 55.01 C56.29 43.69, 42.79 32.92, 8.03 -0.09 M77.83 55.28 C57 34.79, 32.89 13.56, 12.92 -1.15 M77.83 55.28 C57.05 39.39, 40.59 25.17, 12.92 -1.15 M83.47 54.88 C72.05 47.79, 57.24 36.53, 17.05 -2.85 M83.47 54.88 C58.2 34.45, 35.7 13.7, 17.05 -2.85 M89.87 55.14 C70.99 43.12, 54.99 23.12, 23.45 -2.59 M89.87 55.14 C65.57 34.15, 39.42 11.51, 23.45 -2.59 M96.26 55.4 C74.08 42.28, 55.92 21.88, 29.1 -2.98 M96.26 55.4 C78.73 40.38, 64.81 25.87, 29.1 -2.98 M101.91 55.01 C78.29 36.76, 61.96 17.92, 35.49 -2.72 M101.91 55.01 C80.86 36.21, 61.41 18.95, 35.49 -2.72 M108.31 55.27 C89.1 38.02, 73.77 31.84, 41.89 -2.46 M108.31 55.27 C90.32 37.66, 70.62 22.34, 41.89 -2.46 M114.7 55.53 C99.52 43.7, 76.27 22.19, 47.53 -2.86 M114.7 55.53 C99.12 42.49, 88.27 30.57, 47.53 -2.86 M120.35 55.14 C95.53 29.47, 70.93 12.08, 53.93 -2.6 M120.35 55.14 C104.89 43, 93.48 32.25, 53.93 -2.6 M126.74 55.4 C108.33 38.51, 95.68 27, 59.57 -2.99 M126.74 55.4 C110.28 40.35, 92.63 23.62, 59.57 -2.99 M133.14 55.66 C110.28 33.13, 81.55 10.8, 65.97 -2.73 M133.14 55.66 C119.73 40.91, 106.14 29.95, 65.97 -2.73 M138.78 55.27 C115.54 39.57, 99.68 23.53, 72.37 -2.47 M138.78 55.27 C122.93 38.75, 107.13 28.62, 72.37 -2.47 M145.18 55.53 C121.59 34.51, 100.15 18.63, 78.01 -2.86 M145.18 55.53 C123.23 35.88, 101.56 19.31, 78.01 -2.86 M150.83 55.13 C133.43 40.22, 116.52 27.96, 84.41 -2.6 M150.83 55.13 C128.87 34.05, 104.89 14.8, 84.41 -2.6 M157.22 55.39 C135.93 35.84, 104.55 12.04, 90.81 -2.34 M157.22 55.39 C140.67 37.15, 121.17 20.16, 90.81 -2.34 M163.62 55.66 C145.93 41.51, 134.24 33.63, 96.45 -2.73 M163.62 55.66 C135.85 35.39, 112.79 12.36, 96.45 -2.73 M169.26 55.26 C145.83 36.32, 123.85 15.23, 102.85 -2.47 M169.26 55.26 C149.09 37.03, 130.48 21.38, 102.85 -2.47 M175.66 55.52 C161.09 41.97, 143.83 30.57, 109.25 -2.21 M175.66 55.52 C158.07 42.39, 145.51 29.67, 109.25 -2.21 M182.06 55.78 C165.71 39.98, 137.93 23.8, 114.89 -2.6 M182.06 55.78 C169.46 43.86, 155.13 31.63, 114.89 -2.6 M187.7 55.39 C161.71 32.82, 135.03 13.29, 121.29 -2.34 M187.7 55.39 C165.99 38.54, 143.35 19.61, 121.29 -2.34 M196.36 57.62 C176.13 36.36, 147.72 14.73, 127.69 -2.08 M196.36 57.62 C171.72 34.06, 146.37 13.99, 127.69 -2.08 M201.25 56.57 C180.53 30.83, 152.58 7.86, 133.33 -2.48 M201.25 56.57 C175.75 34.32, 154.37 11.67, 133.33 -2.48 M205.39 54.86 C189.55 40.34, 172.28 24.84, 139.73 -2.22 M205.39 54.86 C182.89 33.6, 157.28 13.59, 139.73 -2.22 M208.01 51.84 C193.98 39.65, 178.58 27.54, 146.12 -1.95 M208.01 51.84 C191.62 38.11, 179.39 28.97, 146.12 -1.95 M210.64 48.82 C196.88 39.71, 186.82 26.33, 151.77 -2.35 M210.64 48.82 C194.07 32.16, 175.05 19.32, 151.77 -2.35 M210.24 43.18 C195.07 29.93, 173.59 13.18, 158.17 -2.09 M210.24 43.18 C193.91 30.3, 181.63 19.53, 158.17 -2.09 M210.6 38.19 C192.49 23.32, 177.39 9.57, 163.81 -2.48 M210.6 38.19 C195.88 26.36, 181.29 12.77, 163.81 -2.48 M210.21 32.55 C197.93 20.01, 189.88 14.51, 170.21 -2.22 M210.21 32.55 C199.38 25.24, 190 15.31, 170.21 -2.22 M210.57 27.56 C205.05 24.32, 190.28 12.57, 176.6 -1.96 M210.57 27.56 C204.65 19.67, 195.25 13.78, 176.6 -1.96 M210.93 22.58 C204.9 15.12, 197.95 5.87, 182.25 -2.35 M210.93 22.58 C204.36 13.45, 195.97 8.83, 182.25 -2.35 M210.53 16.93 C201.98 7.08, 197.34 0.98, 188.65 -2.09 M210.53 16.93 C202.5 9.48, 198.65 5.48, 188.65 -2.09 M210.14 11.29 C209.4 8.48, 197.63 6.75, 195.04 -1.83 M210.14 11.29 C205.31 5.19, 198.62 -0.06, 195.04 -1.83" stroke="#b2f2bb" stroke-width="0.5" fill="none"></path><path d="M14.5 0 M14.5 0 C63.24 -2.03, 104.77 0.55, 195.5 0 M14.5 0 C74.67 -0.99, 133.66 1.35, 195.5 0 M195.5 0 C206.87 -0.6, 209.79 7.25, 210 14.5 M195.5 0 C204.41 4.57, 209.89 6.67, 210 14.5 M210 14.5 C212.1 25.42, 209.22 33.25, 210 43.5 M210 14.5 C208.82 21.61, 209.64 28.09, 210 43.5 M210 43.5 C209.28 57.03, 207.09 61.75, 195.5 58 M210 43.5 C214.09 56.92, 205.14 53.67, 195.5 58 M195.5 58 C136.1 62.24, 80.42 60.94, 14.5 58 M195.5 58 C125.51 57.5, 54.86 59.5, 14.5 58 M14.5 58 C8.59 55.38, -2.88 50.76, 0 43.5 M14.5 58 C3.61 61.18, 4.44 55.96, 0 43.5 M0 43.5 C-3.66 34.45, 1.19 24.12, 0 14.5 M0 43.5 C-0.52 37.65, -0.76 27.61, 0 14.5 M0 14.5 C-0.27 2.3, 6.32 2.02, 14.5 0 M0 14.5 C2.22 7.46, 6.25 3.25, 14.5 0" stroke="#1e1e1e" stroke-width="1" fill="none"></path></g><g transform="translate(275.5166702270508 477.4) rotate(0 88.98332977294922 9.600000000000023)"><text x="88.98332977294922" y="0" font-family="Cascadia, Segoe UI Emoji" font-size="16px" fill="#1e1e1e" text-anchor="middle" style="white-space: pre;" direction="ltr" dominant-baseline="text-before-edge">91:veth507b478@if90</text></g><g stroke-linecap="round"><g transform="translate(168 289) rotate(0 -4.123167713358953 84.27130844779316)"><path d="M-2.01 1.31 C-2.71 29.37, -5.63 140.41, -6.24 167.23" stroke="#f08c00" stroke-width="2.5" fill="none" stroke-dasharray="8 10"></path></g></g><mask></mask><g stroke-linecap="round"><g transform="translate(582 306) rotate(0 -102.1144450645894 75.52228720597921)"><path d="M-0.55 1.75 C-34.27 26.24, -169.76 123.79, -203.68 149.29" stroke="#f08c00" stroke-width="2.5" fill="none" stroke-dasharray="8 10"></path></g></g><mask></mask><g stroke-linecap="round"><g transform="translate(765 303) rotate(0 -2.864569218829274 77.8792378921062)"><path d="M-2.42 2.65 C-3.44 27.73, -3.19 127.59, -3.31 153.11" stroke="#f08c00" stroke-width="2.5" fill="none" stroke-dasharray="8 10"></path></g></g><mask></mask><g stroke-opacity="0.8" fill-opacity="0.8" stroke-linecap="round" transform="translate(373 350) rotate(0 130 19)"><path d="M-1.13 3.29 L256.29 3.25 L256.33 34.91 L-3.36 39.76" stroke="none" stroke-width="0" fill="#e8590c"></path><path d="M-0.26 -0.42 C88.58 1.81, 180.22 2.65, 262.39 2.24 M260.9 -1.98 C264.39 9.64, 256.69 27.69, 263.41 36.84 M259.81 34.84 C180.31 35.02, 106.09 34.61, 0.06 40.44 M-2.69 38.79 C0.76 21.31, 3.19 9.57, 1.94 -2.31" stroke="transparent" stroke-width="2.5" fill="none" stroke-dasharray="1.5 8"></path></g><g stroke-opacity="0.8" fill-opacity="0.8" transform="translate(383.3833312988281 359.8) rotate(0 119.61666870117188 9.199999999999989)"><text x="119.61666870117188" y="0" font-family="Helvetica, Segoe UI Emoji" font-size="16px" fill="#ffffff" text-anchor="middle" style="white-space: pre;" direction="ltr" dominant-baseline="text-before-edge">docker network connect bridge c2</text></g><g mask="url(#mask-zSlKqNEfNn99DFE-71Uq1)" stroke-linecap="round"><g stroke-opacity="0.8" fill-opacity="0.8" transform="translate(258 165.96015892777268) rotate(0 139.9317614700645 -6.2411006941372875)"><path d="M-1.04 -0.16 C22.18 -2.45, 93.2 -14.37, 140.2 -14.03 C187.19 -13.7, 257.58 -0.55, 280.91 1.87 M0.61 -1.29 C23.57 -3.89, 92.43 -16.55, 139.09 -15.78 C185.76 -15.01, 257.05 0.53, 280.62 3.33" stroke="#e03131" stroke-width="2" fill="none"></path></g><g stroke-opacity="0.8" fill-opacity="0.8" transform="translate(258 165.96015892777268) rotate(0 139.9317614700645 -6.2411006941372875)"><path d="M281.9 3.85 L264.9 7.8 L269.73 -4.05 L282.59 1.35" stroke="none" stroke-width="0" fill="#e03131" fill-rule="evenodd"></path><path d="M280.42 2.96 C276.13 5.86, 270.21 6.43, 264.8 6.32 M280.75 2.67 C277.33 4.11, 274.28 5.94, 265.45 7.37 M266.03 7.11 C266.63 3.17, 268.43 -1.38, 268.9 -5.07 M266.7 7.16 C267.1 2.64, 268.1 -1.79, 267.62 -5.52 M268.88 -4.65 C272.43 -2.34, 275.07 -0.63, 279.55 2.47 M268.02 -5.02 C271.78 -2.47, 274.45 -0.5, 279.91 2.68 M280.62 3.33 C280.62 3.33, 280.62 3.33, 280.62 3.33 M280.62 3.33 C280.62 3.33, 280.62 3.33, 280.62 3.33" stroke="#e03131" stroke-width="2" fill="none"></path></g></g><mask id="mask-zSlKqNEfNn99DFE-71Uq1"><rect x="0" y="0" fill="#fff" width="638" height="282.3034407548963"></rect><rect x="363.45873066735646" y="139.7077289217143" fill="#000" width="70.06666564941406" height="23" opacity="1"></rect></mask><g stroke-opacity="0.8" fill-opacity="0.8" transform="translate(363.45873066735646 139.7077289217143) rotate(0 34.473030802708024 20.011329311921088)"><text x="35.03333282470703" y="0" font-family="Helvetica, Segoe UI Emoji" font-size="20px" fill="#e03131" text-anchor="middle" style="white-space: pre;" direction="ltr" dominant-baseline="text-before-edge">ping (X)</text></g><g stroke-linecap="round"><g stroke-opacity="0.8" fill-opacity="0.8" transform="translate(256.1941283930296 221.2291051209391) rotate(178.0613104491411 142.2205003414303 -6.065079348023147)"><path d="M-0.39 -0.76 C23.05 -3.3, 92.52 -14.68, 140.05 -14.21 C187.59 -13.73, 260.65 -0.36, 284.83 2.09 M1.61 1.46 C25 -0.42, 92.4 -12.83, 139.46 -13.07 C186.53 -13.31, 259.65 -2.34, 283.97 0.01" stroke="#2f9e44" stroke-width="2" fill="none"></path></g><g stroke-opacity="0.8" fill-opacity="0.8" transform="translate(256.1941283930296 221.2291051209391) rotate(178.0613104491411 142.2205003414303 -6.065079348023147)"><path d="M284.72 0.61 L269.68 2.99 L272.59 -6.04 L282.92 -1.09" stroke="none" stroke-width="0" fill="#2f9e44" fill-rule="evenodd"></path><path d="M283.03 0.87 C279.48 0.94, 277.48 2.48, 268.38 4.24 M283.9 0.26 C279.3 1.84, 273.28 3.88, 269.95 5.37 M270.72 3.67 C270.13 0.1, 270.54 -1.72, 270.84 -8.74 M269.55 4.7 C269.87 0.82, 271 -2.38, 271 -7.67 M270.25 -7.78 C275.64 -7.22, 276.77 -4.16, 285.07 0.18 M271.82 -7.21 C275.16 -5.6, 278.79 -3.57, 284.71 0.12 M283.97 0.01 C283.97 0.01, 283.97 0.01, 283.97 0.01 M283.97 0.01 C283.97 0.01, 283.97 0.01, 283.97 0.01" stroke="#2f9e44" stroke-width="2" fill="none"></path></g></g><mask></mask><g stroke-linecap="round" transform="translate(363 193.5) rotate(0 48 22)"><path d="M10.91 -0.29 L89.23 -0.38 L93.49 6.74 L93.88 37.26 L92.91 41.84 L86.15 44.21 L7.27 44.32 L0.39 39.15 L1.26 9.4 L4.58 4.15 L10.1 -1.22" stroke="none" stroke-width="0" fill="#b2f2bb"></path><path d="M11 0 M11 0 C33.61 -1.13, 57.69 0.06, 85 0 M85 0 C91.83 -1.78, 94.73 2.85, 96 11 M96 11 C96.56 17.89, 97.05 25.4, 96 33 M96 33 C97.86 42.16, 94.29 45.15, 85 44 M85 44 C61.5 42.43, 39.87 41.72, 11 44 M11 44 C2.83 42.38, 1.26 40.19, 0 33 M0 33 C-0.75 27.34, 1.16 21.55, 0 11 M0 11 C-1.87 2.46, 2.04 1.59, 11 0" stroke="transparent" stroke-width="2.5" fill="none" stroke-dasharray="1.5 8"></path></g><g transform="translate(368.18333435058594 204) rotate(0 42.81666564941406 11.5)"><text x="42.81666564941406" y="0" font-family="Helvetica, Segoe UI Emoji" font-size="20px" fill="#2f9e44" text-anchor="middle" style="white-space: pre;" direction="ltr" dominant-baseline="text-before-edge">ping (OK)</text></g><g stroke-linecap="round" transform="translate(356 122) rotate(0 48 21.5)"><path d="M11.74 -1.2 L88.59 2.05 L95.73 6.36 L96.48 38.6 L91.82 38.6 L85.31 44.84 L6.61 42.74 L1.76 35.39 L-1.75 9.22 L2.04 3.71 L10.39 -1.65" stroke="none" stroke-width="0" fill="#ffec99"></path><path d="M10.75 0 M10.75 0 C36.34 -0.55, 65.86 0.19, 85.25 0 M85.25 0 C93.96 -0.02, 94.97 2.54, 96 10.75 M96 10.75 C94.17 17.32, 97.28 25.84, 96 32.25 M96 32.25 C97.46 40.82, 91.76 43.87, 85.25 43 M85.25 43 C58.87 44.22, 27.32 44.48, 10.75 43 M10.75 43 C4.01 42.9, -0.51 41.09, 0 32.25 M0 32.25 C-0.23 26.16, 1.59 22.16, 0 10.75 M0 10.75 C-1.83 2.41, 2.72 0.86, 10.75 0" stroke="transparent" stroke-width="2.5" fill="none" stroke-dasharray="1.5 8"></path></g><g transform="translate(368.96666717529297 132) rotate(0 35.03333282470703 11.5)"><text x="35.03333282470703" y="0" font-family="Helvetica, Segoe UI Emoji" font-size="20px" fill="#e03131" text-anchor="middle" style="white-space: pre;" direction="ltr" dominant-baseline="text-before-edge">ping (X)</text></g></svg>